<svg width="58" height="50" viewBox="0 0 58 50" fill="none" xmlns="http://www.w3.org/2000/svg">
<path d="M2.04082 9.18367L55.102 9.18367C56.2292 9.18367 57.1429 8.27002 57.1429 7.14286L57.1429 2.04082C57.1429 0.913647 56.2292 -6.39236e-07 55.102 -6.26422e-07L2.04082 -2.32008e-08C0.913648 -1.03867e-08 1.03867e-08 0.913648 2.32008e-08 2.04082L8.12028e-08 7.14286C9.40169e-08 8.27003 0.913648 9.18367 2.04082 9.18367ZM2.04082 29.5918L55.102 29.5918C56.2292 29.5918 57.1429 28.6782 57.1429 27.551L57.1429 22.449C57.1429 21.3218 56.2292 20.4082 55.102 20.4082L2.04082 20.4082C0.913648 20.4082 2.42395e-07 21.3218 2.55209e-07 22.449L3.13211e-07 27.551C3.26025e-07 28.6782 0.913648 29.5918 2.04082 29.5918ZM2.04082 50L55.102 50C56.2292 50 57.1429 49.0864 57.1429 47.9592L57.1429 42.8571C57.1429 41.73 56.2292 40.8163 55.102 40.8163L2.04082 40.8163C0.913648 40.8163 4.74403e-07 41.73 4.87217e-07 42.8571L5.45219e-07 47.9592C5.58033e-07 49.0864 0.913649 50 2.04082 50Z" fill="#060606"/>
</svg>
