<svg width="100" height="66" viewBox="0 0 100 66" fill="none" xmlns="http://www.w3.org/2000/svg">
<path d="M55.3294 0.298067C55.2091 0.63497 55.991 1.56641 56.412 1.56641C56.8531 1.56641 56.7127 0.99169 56.1514 0.476427C55.5098 -0.0982885 55.4898 -0.118106 55.3294 0.298067Z" fill="#F1F1F1"/>
<path d="M58.9183 0.436792C58.4371 0.952055 58.3369 1.56641 58.7379 1.56641C59.1589 1.56641 59.9408 0.63497 59.8205 0.298067C59.6401 -0.137924 59.4195 -0.0982885 58.9183 0.436792Z" fill="#F1F1F1"/>
<path d="M55.6099 3.70678C55.2089 4.14277 55.1688 4.7373 55.5297 4.7373C55.8505 4.7373 56.6725 3.90496 56.6725 3.58787C56.6725 3.23115 55.9708 3.31042 55.6099 3.70678Z" fill="#F1F1F1"/>
<path d="M58.4774 3.60769C58.4774 3.92478 59.3195 4.7373 59.6403 4.7373C60.0011 4.7373 59.9209 4.30131 59.4999 3.78605C59.0789 3.31042 58.4774 3.19152 58.4774 3.60769Z" fill="#F1F1F1"/>
<path d="M55.0691 5.74798C44.1424 6.63978 37.3859 7.17486 35.8221 7.25413C33.8974 7.35322 33.0753 7.69013 32.8949 8.4432C32.7345 9.07737 34.4186 30.8175 34.6592 31.3922C35.0602 32.3038 35.4612 32.8785 35.802 33.0767C36.0426 33.1956 38.9698 33.0371 44.8642 32.5813C49.6559 32.2047 53.9264 31.848 54.3674 31.8084C54.8085 31.7489 56.3322 31.6697 57.7357 31.6498C59.1592 31.63 60.3621 31.5309 60.4022 31.4517C60.4623 31.3724 60.723 31.2931 60.9836 31.2931C61.2443 31.2931 61.5851 31.1544 61.7254 30.9959C61.8658 30.8175 62.1665 30.5004 62.387 30.2824C62.6878 29.9851 62.768 29.6681 62.7279 28.8555C62.6878 27.4881 61.3445 10.2863 61.124 8.04685C60.9235 6.22361 60.6428 5.68853 59.7807 5.47053C59.5601 5.4309 57.4349 5.5498 55.0691 5.74798ZM59.901 7.25413C60.0213 7.8883 59.8809 8.34411 59.5601 8.28466C58.678 8.12612 58.7181 7.7694 58.698 16.6676C58.678 23.0489 58.7381 25.0901 58.9386 25.3081C59.1592 25.5658 59.1191 25.5856 58.7181 25.328C58.4775 25.1694 58.3171 24.9514 58.3572 24.8325C58.4374 24.5947 57.5753 13.1598 57.3748 11.8717C57.3146 11.4951 57.2344 10.1872 57.1743 8.95846L57.0941 6.73887L57.7357 6.6596C58.0966 6.61996 58.698 6.58033 59.079 6.60015C59.6804 6.61996 59.7807 6.69924 59.901 7.25413ZM55.9112 7.11541C55.9313 7.3334 55.9513 7.67031 55.9513 7.84867C55.9714 8.04685 56.0716 8.26484 56.1718 8.34411C56.2921 8.42338 56.2119 8.50266 56.0315 8.50266C55.831 8.50266 55.6706 8.42338 55.6706 8.30448C55.6706 8.18557 53.0241 8.12612 48.453 8.14594C44.4833 8.16575 41.1752 8.1063 41.095 8.04685C41.0348 7.96758 41.2754 7.90812 41.6563 7.8883C42.2578 7.8883 55.3298 6.81814 55.7308 6.73887C55.811 6.73887 55.8912 6.89741 55.9112 7.11541ZM39.471 9.43409C39.4108 10.1872 39.2905 10.8412 39.1903 10.9006C39.07 10.9799 39.0901 11.1186 39.2705 11.2771C39.471 11.4753 39.5111 12.8824 39.471 18.6295L39.4309 25.7243L39.9722 25.6252C40.3932 25.5658 40.4534 25.5856 40.2329 25.7441C39.5311 26.1999 39.2705 25.9819 39.1502 24.7929C38.8495 22.1175 38.0275 10.9006 38.0275 9.57281V8.1063H38.7893H39.5512L39.471 9.43409ZM35.401 16.9649C35.381 21.9788 35.3008 25.2091 35.2005 24.8523C35.1203 24.5154 34.8397 21.7211 34.6191 18.6097C34.3785 15.4983 34.0978 12.05 33.9976 10.9204C33.8974 9.81063 33.8573 8.79992 33.9174 8.70083C33.9776 8.58193 34.3585 8.50266 34.7394 8.50266H35.4211L35.401 16.9649ZM55.831 10.4448C56.0916 10.4052 56.1919 10.5835 56.2721 11.2177C56.3523 11.6933 56.3523 12.0699 56.2721 12.0699C56.0716 12.0699 55.6506 13.8733 55.7909 14.0913C55.8912 14.23 55.831 14.2498 55.6706 14.1507C55.4902 14.0318 55.4501 14.1507 55.5704 14.666C55.6506 15.1416 55.6305 15.2605 55.4902 15.0623C55.3498 14.8443 55.2696 14.9434 55.1694 15.4983C55.0892 15.9145 55.0691 16.41 55.1293 16.628C55.1894 16.8459 55.1293 16.9847 55.009 16.9649C54.7684 16.9252 54.2271 18.5701 54.3875 18.8277C54.4476 18.9268 54.3875 19.0061 54.2471 19.0061C54.1068 19.0061 54.0667 19.2043 54.1068 19.5015C54.1669 19.7988 54.1268 19.9375 54.0065 19.8583C53.8863 19.779 53.8662 19.9573 53.9464 20.3141C54.0266 20.6708 54.0065 20.7897 53.9063 20.6311C53.766 20.433 53.6858 20.5717 53.5855 21.1266C53.5053 21.5428 53.3449 22.1373 53.2246 22.4742L53.0241 23.0687L51.0994 23.0291C49.7962 23.0093 49.1346 22.9102 49.0344 22.7318C48.7938 22.3553 49.1747 22.2364 50.919 22.1175C51.8012 22.058 52.543 21.9788 52.5831 21.9193C52.6232 21.8797 53.1645 19.4024 53.766 16.4496C54.8085 11.297 55.2897 9.47373 55.43 10.1872C55.4701 10.3457 55.6506 10.4646 55.831 10.4448ZM49.7762 10.5439C50.1772 10.3853 50.5381 11.3961 50.498 12.6248C50.4579 14.2895 50.2373 14.2498 49.6158 12.4662C49.0143 10.6628 48.9141 10.0683 49.275 10.425C49.3953 10.5439 49.6359 10.6033 49.7762 10.5439ZM44.6837 10.9799C45.0446 11.6339 44.8842 14.7651 44.5233 14.3885C44.3229 14.2102 43.4407 10.9601 43.5209 10.7421C43.6612 10.3655 44.4432 10.5241 44.6837 10.9799ZM52.7034 16.1325L51.741 20.8888L50.7987 20.9879L49.8564 21.1068L49.5557 20.2942C49.3953 19.8583 48.8138 18.2134 48.2926 16.6478C47.5508 14.5074 47.2901 13.8931 47.2099 14.2696C47.1498 14.5273 46.849 16.1523 46.5483 17.8567C46.2275 19.561 45.9268 21.0671 45.8265 21.2059C45.7463 21.3446 45.3053 21.4635 44.8241 21.4635L43.982 21.4833L43.5209 20.1952C42.1375 16.3505 40.6338 12.0104 40.6338 11.8519C40.6338 11.733 41.0549 11.6735 41.5761 11.7131L42.5184 11.7726L43.6211 15.3794C44.2427 17.381 44.784 19.0061 44.8441 19.0061C44.9043 19.0061 45.205 17.5594 45.5258 15.7956C46.3679 11.1384 46.3077 11.2771 47.25 11.2771C48.1322 11.2771 47.9918 10.9997 49.6359 15.8352C50.6985 18.9466 50.6584 18.9268 51.0593 16.3307C51.1796 15.5578 51.4603 14.0318 51.6809 12.922L52.1019 10.9006L52.8437 10.8412C53.365 10.8015 53.5855 10.861 53.6056 11.079C53.6457 11.2375 53.2246 13.5166 52.7034 16.1325ZM41.1952 14.8642C41.1351 15.0227 41.0549 14.9236 40.9747 14.666C40.8945 14.3291 40.9145 14.2498 41.0749 14.4084C41.1752 14.5074 41.2353 14.7254 41.1952 14.8642ZM47.9317 20.1952C47.8515 20.6906 47.7713 21.1662 47.7512 21.2851C47.7512 21.3842 47.631 21.7409 47.4906 22.0382C47.3503 22.3553 47.25 22.6922 47.25 22.7913C47.25 22.8904 47.1698 22.9696 47.0495 22.9895C46.6686 23.0093 44.2427 22.9895 43.7013 22.9696C42.6387 22.9102 43.8417 22.5931 45.1449 22.5931C45.8065 22.5733 46.4481 22.494 46.5684 22.4147C46.7087 22.3355 46.9493 21.5229 47.1297 20.5915C47.5909 18.3323 47.651 18.1936 47.8916 18.8079C47.9918 19.0854 48.0119 19.6997 47.9317 20.1952ZM42.318 19.7195C42.3781 19.8781 42.3581 19.9573 42.2378 19.8979C42.1175 19.8384 42.0373 19.6997 42.0373 19.5808C42.0373 19.3034 42.1776 19.3628 42.318 19.7195ZM61.2242 24.7929C61.1641 24.9514 61.1039 24.892 61.1039 24.674C61.0839 24.456 61.144 24.3371 61.2042 24.4163C61.2643 24.4758 61.2844 24.6542 61.2242 24.7929ZM55.009 25.4667C54.9489 25.5261 54.7684 25.546 54.6281 25.4865C54.4677 25.4271 54.5278 25.3676 54.7484 25.3676C54.9689 25.3478 55.0892 25.4072 55.009 25.4667ZM51.9214 25.6847C51.7811 25.7243 51.5405 25.7243 51.4202 25.6847C51.2799 25.6252 51.3801 25.5856 51.6608 25.5856C51.9415 25.5856 52.0417 25.6252 51.9214 25.6847ZM59.0188 27.7457C59.921 28.8753 60.6829 29.9059 60.6829 30.0248C60.6829 30.1635 60.342 30.3022 59.901 30.3419C59.3396 30.3815 59.1592 30.3419 59.2193 30.1635C59.2794 30.0248 59.2193 29.9059 59.099 29.9059C58.9787 29.9059 58.8785 29.8068 58.8785 29.7077C58.8785 29.4501 58.0966 28.3403 57.6755 27.9637C57.455 27.7656 57.4349 27.7259 57.6555 27.8448C57.8359 27.9439 57.8159 27.8052 57.5552 27.4683L57.1743 26.953L49.5156 26.9927C45.3053 27.0125 41.917 26.9728 41.9972 26.8936C42.1375 26.7747 56.1317 25.6054 56.9538 25.6649C57.1943 25.6649 57.9763 26.4576 59.0188 27.7457ZM61.5851 27.825C61.6653 28.697 61.6853 29.3708 61.6452 29.3113C61.3846 29.0339 60.9435 27.9439 61.124 28.043C61.2643 28.1421 61.3044 27.7854 61.2443 26.953C61.2042 26.2792 61.2242 25.8432 61.3044 25.9819C61.3645 26.1207 61.5049 26.953 61.5851 27.825ZM37.005 28.7564C36.3233 29.9851 35.7218 31.0355 35.6617 31.0949C35.6015 31.1544 35.6216 30.7977 35.7018 30.3022C35.782 29.8068 35.8622 29.3113 35.8622 29.1726C35.8822 29.0339 35.9624 28.9546 36.0426 28.9744C36.3032 29.0339 37.2255 27.6863 37.0852 27.4485C37.025 27.3296 37.0451 27.2899 37.1253 27.389C37.3658 27.5872 38.0074 26.5567 37.8871 26.1603C37.8069 25.9027 37.847 25.9225 38.0275 26.1801C38.2079 26.4774 38.0275 26.9332 37.005 28.7564ZM51.32 31.4318C51.1796 31.4715 50.939 31.4715 50.8188 31.4318C50.6784 31.3724 50.7787 31.3328 51.0593 31.3328C51.34 31.3328 51.4403 31.3724 51.32 31.4318ZM54.608 31.412C54.5479 31.4715 54.3674 31.4913 54.2271 31.4318C54.0667 31.3724 54.1268 31.3129 54.3474 31.3129C54.5679 31.2931 54.6882 31.3526 54.608 31.412ZM40.273 31.7093C40.1928 31.7886 39.2705 31.9075 38.2279 31.9867C36.624 32.1056 36.3634 32.0858 36.5639 31.8678C36.7243 31.6697 37.3057 31.5904 38.6089 31.5904C39.5913 31.5904 40.3531 31.6498 40.273 31.7093ZM46.9894 31.6102C46.9292 31.6697 46.7488 31.6895 46.6085 31.63C46.4481 31.5706 46.5082 31.5111 46.7287 31.5111C46.9493 31.4913 47.0696 31.5507 46.9894 31.6102Z" fill="#F1F1F1"/>
<path d="M62.3064 7.59089C61.6648 8.34396 62.5269 9.73121 63.2086 9.0574C63.4893 8.77995 63.5093 8.58178 63.369 8.06651C63.1484 7.35307 62.6873 7.13508 62.3064 7.59089Z" fill="#F1F1F1"/>
<path d="M62.5272 10.524C61.9658 11.0789 62.4871 12.3671 63.2089 12.2482C63.4695 12.1887 63.6098 11.9707 63.6499 11.5149C63.7502 10.524 63.1086 9.94929 62.5272 10.524Z" fill="#F1F1F1"/>
<path d="M62.7678 13.5165C62.7076 13.6751 62.6876 14.1111 62.7277 14.4876C62.7678 15.0425 62.868 15.1416 63.2891 15.1416C63.7502 15.1416 63.7903 15.0623 63.7903 14.2498C63.7903 13.4769 63.7301 13.358 63.3292 13.2985C63.0685 13.2589 62.848 13.358 62.7678 13.5165Z" fill="#F1F1F1"/>
<path d="M63.0282 16.1719C62.948 16.2314 62.8879 16.6277 62.8879 17.0439C62.8879 17.6186 62.9881 17.8168 63.2889 17.9159C63.8903 18.0943 64.0908 17.8763 64.0908 17.0241C64.0908 16.5287 63.9906 16.2314 63.77 16.1521C63.3691 15.9936 63.1886 15.9936 63.0282 16.1719Z" fill="#F1F1F1"/>
<path d="M63.349 19.1447C63.0282 19.2636 63.0082 20.4328 63.3289 20.7499C63.9304 21.3445 64.572 20.6508 64.3113 19.6798C64.171 19.1249 63.8302 18.9267 63.349 19.1447Z" fill="#F1F1F1"/>
<path d="M63.5293 22.2162C63.1885 22.5531 63.2286 23.4647 63.6095 23.7818C64.2912 24.3367 64.9728 23.2665 64.4917 22.3945C64.2511 21.9189 63.8902 21.8594 63.5293 22.2162Z" fill="#F1F1F1"/>
<path d="M23.4312 27.9636C23.0503 28.3401 23.1305 28.5977 23.8523 29.2715C25.1555 30.5201 25.9374 29.7868 24.6743 28.4986C23.8322 27.6465 23.7721 27.6267 23.4312 27.9636Z" fill="#F1F1F1"/>
<path d="M28.584 28.4789C28.0026 29.014 27.782 29.3509 27.8622 29.5689C28.0627 30.1039 28.6642 29.9652 29.3659 29.2518C30.0877 28.5185 30.1478 28.2807 29.7067 27.924C29.4862 27.7456 29.2656 27.8447 28.584 28.4789Z" fill="#F1F1F1"/>
<path d="M84.0401 31.9072C80.2909 32.2045 74.8977 32.6405 72.0507 32.8585C69.1837 33.0963 66.6976 33.3737 66.4771 33.4728C65.7353 33.8692 65.6551 34.3448 65.8957 37.0995C66.016 38.5858 66.1162 43.7979 66.1162 49.228V58.7405L66.6575 57.8883C66.9583 57.4325 67.239 57.056 67.2991 57.056C67.3793 57.056 67.8204 57.7893 68.2414 58.6811C68.2815 58.7603 68.1612 58.7801 67.9808 58.7009C67.7001 58.6018 67.66 58.6414 67.7602 58.9189C67.8605 59.1369 67.8204 59.2161 67.66 59.117C67.4996 59.018 67.4795 59.0774 67.5597 59.2954C67.6399 59.4936 67.5998 59.6125 67.4595 59.5729C67.3392 59.553 67.2189 59.6323 67.1588 59.771C67.0986 59.9296 67.8605 60.0088 70.0057 60.0088C71.8302 60.0088 72.8727 59.9494 72.8126 59.8305C72.7324 59.7116 72.8928 59.7116 73.2136 59.8305C73.9554 60.1079 90.957 60.1079 90.957 59.8305C90.957 59.4738 90.3154 58.6414 90.135 58.7603C89.9746 58.8594 89.8543 58.4234 89.9345 57.9874C89.9345 57.9082 89.8543 57.8487 89.734 57.8487C89.6337 57.8487 89.5936 57.7694 89.6538 57.6505C89.7139 57.5514 90.2352 57.4524 90.7765 57.4524C91.3379 57.4524 91.7389 57.5316 91.6787 57.6307C91.6186 57.71 91.6988 57.9676 91.8792 58.1658C92.1599 58.5225 92.1599 58.5027 92.1198 57.9478C92.0597 57.3533 92.0797 57.3533 93.2426 57.2344C94.3052 57.1154 94.5257 57.0164 95.1071 56.3624C95.468 55.966 95.7687 55.4706 95.7687 55.2922C95.7687 53.7464 93.9242 32.363 93.7638 32.0856C93.2426 31.1343 93.3228 31.1343 84.0401 31.9072ZM92.9619 33.235C92.9619 33.5521 93.3228 38.2687 93.7638 43.7583C94.2049 49.228 94.5658 53.9842 94.5658 54.3013C94.5658 54.876 94.5057 54.8166 93.3629 53.4095C92.7012 52.5772 92.1599 51.7845 92.1599 51.6259C92.1599 51.4674 92.0797 51.2692 91.9594 51.2097C91.8592 51.1503 91.7589 50.9918 91.7589 50.8927C91.7589 50.7738 91.8391 50.7341 91.9594 50.8134C92.2 50.9521 92.2201 37.2382 91.9795 36.8617C91.8792 36.7031 91.4782 36.5842 91.0773 36.5842C90.3956 36.5842 90.3756 36.5446 90.2753 35.7717C90.2152 35.3159 90.135 34.4241 90.1149 33.7701L90.0548 32.581L91.1575 32.4819C92.5408 32.3432 92.9619 32.5216 92.9619 33.235ZM89.0523 34.5033C89.333 37.8526 89.4533 41.8359 89.4533 46.1562L89.4332 50.417L88.7917 50.4765L88.1501 50.5359L88.1301 45.3239C88.1301 42.4503 88.11 39.2993 88.09 38.3282L88.0499 36.5446L85.4234 36.5248C83.9799 36.5049 82.3359 36.386 81.7545 36.2473C80.9124 36.0491 79.9701 36.0491 77.2434 36.2275C75.3588 36.3464 73.1534 36.4851 72.3715 36.5049L70.9079 36.5644V35.633C70.9079 35.1177 70.8478 34.5628 70.7876 34.4043C70.7074 34.1664 70.9681 34.0872 72.0507 33.9683C74.3363 33.7503 87.1878 32.7197 88.0699 32.6999L88.8919 32.6801L89.0523 34.5033ZM69.8654 36.4455C69.9857 37.5949 70.0859 42.0737 70.0859 46.4138L70.106 54.3013L69.5045 55.4706C69.1837 56.1047 68.8228 56.6795 68.7025 56.7587C68.4619 56.9173 68.4419 55.6688 68.6825 54.6382C68.7827 54.2022 68.7827 53.8455 68.6624 53.7266C68.5421 53.6077 68.5421 53.4095 68.6624 53.1717C68.7827 52.9339 68.8629 49.5847 68.883 44.7293L68.903 36.6437L68.4218 36.5248C68.1612 36.4653 67.7402 36.4455 67.4795 36.4851C67.0184 36.5446 66.9984 36.4851 66.9984 35.4546V34.3646L68.2013 34.2655C68.8629 34.2061 69.4644 34.2061 69.5446 34.2655C69.6047 34.325 69.7651 35.2961 69.8654 36.4455ZM70.6072 36.6437C70.6673 36.7428 70.6272 36.8418 70.527 36.8418C70.4067 36.8418 70.3065 36.7428 70.3065 36.6437C70.3065 36.5248 70.3466 36.4455 70.3867 36.4455C70.4468 36.4455 70.547 36.5248 70.6072 36.6437ZM77.7447 39.2596C77.905 39.5569 77.9852 42.4899 77.9451 46.1958L77.9251 47.3453H77.2635H76.5818L76.3412 44.2141C76.2209 42.5097 76.0605 40.6469 76.0004 40.0721C75.9001 39.2002 75.9202 39.0416 76.241 38.9822C77.0229 38.8434 77.5642 38.9425 77.7447 39.2596ZM85.6841 39.2596C85.6239 39.4182 85.5638 39.3587 85.5638 39.1407C85.5437 38.9227 85.6039 38.8038 85.664 38.8831C85.7242 38.9425 85.7442 39.1209 85.6841 39.2596ZM75.1984 43.7781L75.5794 48.5343H76.3011C77.9251 48.5343 81.6743 48.0785 82.3158 47.8209C82.6968 47.6624 83.2982 47.3056 83.6591 47.048C84.02 46.7706 84.3408 46.5526 84.3809 46.5526C84.6014 46.5526 84.3809 47.7416 84.1002 48.0191C83.8997 48.2173 83.7393 48.4749 83.7393 48.6136C83.7393 48.7523 83.2782 49.2874 82.7369 49.8027C82.1153 50.3774 81.7745 50.8332 81.8748 50.9719C81.975 51.1305 81.9149 51.1305 81.6943 50.9521C81.3735 50.7143 80.6518 50.8332 80.8322 51.1107C80.8723 51.1899 80.6919 51.2097 80.4312 51.1503C80.1505 51.1107 79.93 51.1503 79.93 51.2296C79.93 51.3287 78.5065 51.4079 76.7622 51.4079H73.6145L73.5544 45.205L73.5143 39.0218H74.1759H74.8375L75.1984 43.7781ZM84.2205 39.9334C84.2806 40.092 84.2606 40.1712 84.1403 40.1118C84.02 40.0523 83.9398 39.9136 83.9398 39.7947C83.9398 39.5172 84.0802 39.5767 84.2205 39.9334ZM81.2332 40.2901C81.8347 40.8847 82.0752 42.2917 81.7344 43.2826C81.4938 44.0357 80.5315 44.8482 80.3911 44.4321C80.331 44.2933 80.1906 44.2141 80.0703 44.2537C79.93 44.2735 79.8899 44.2735 79.9901 44.2339C80.2708 44.0555 80.1305 43.6393 79.6293 43.2232C79.2283 42.8863 79.128 42.6088 79.128 41.9152C79.128 41.4396 79.0679 40.7658 79.0077 40.4289L78.8874 39.8145H79.8097C80.5315 39.8145 80.8523 39.9334 81.2332 40.2901ZM83.1378 40.2109C83.1378 40.31 83.0977 40.409 83.0576 40.409C82.9975 40.409 82.8973 40.31 82.8371 40.2109C82.777 40.092 82.8171 40.0127 82.9173 40.0127C83.0376 40.0127 83.1378 40.092 83.1378 40.2109ZM83.3784 41.0036C83.8396 41.5387 84.3408 42.5097 84.3408 42.8863C84.3408 43.0646 84.421 43.1637 84.5212 43.1043C84.7017 42.9854 84.7017 43.0845 84.441 44.2141C84.1804 45.4824 82.3559 46.8498 80.6317 47.0876C79.9099 47.1867 79.7295 47.1471 79.7295 46.8895C79.7295 46.7309 79.8699 46.5526 80.0302 46.4733C80.1906 46.4138 80.3109 46.2553 80.2909 46.1364C80.2508 46.0175 80.6919 45.6806 81.2332 45.3833C82.5965 44.6897 82.9775 43.9366 82.8973 42.0341C82.8572 41.2612 82.8772 40.6072 82.9374 40.6072C82.9975 40.6072 83.198 40.7856 83.3784 41.0036ZM79.6293 43.5601C79.6894 43.6592 79.6694 43.7979 79.5691 43.8573C79.4689 43.9168 79.3887 43.8375 79.3887 43.679C79.3887 43.3421 79.4488 43.3024 79.6293 43.5601ZM68.0409 45.7004C67.9808 45.8986 67.9407 45.7797 67.9407 45.4626C67.9407 45.1257 67.9808 44.987 68.0409 45.1059C68.081 45.2446 68.081 45.522 68.0409 45.7004ZM78.2659 46.5922C78.2058 46.7309 78.1657 46.6318 78.1657 46.3544C78.1657 46.0769 78.2058 45.9778 78.2659 46.0968C78.306 46.2355 78.306 46.4733 78.2659 46.5922ZM84.6816 49.3667C84.6215 49.5252 84.5613 49.4658 84.5613 49.2478C84.5413 49.0298 84.6014 48.9109 84.6616 48.9902C84.7217 49.0496 84.7418 49.228 84.6816 49.3667ZM89.9946 50.1594C89.8342 50.3179 89.8142 50.2387 89.8944 49.9018C89.9746 49.6441 90.0548 49.5451 90.1149 49.7036C90.155 49.8423 90.0949 50.0603 89.9946 50.1594ZM89.3731 52.0421C89.3931 52.3394 89.3931 53.033 89.3731 53.5482C89.333 54.2617 89.4533 54.7175 89.8543 55.3715C90.135 55.8669 90.2753 56.2831 90.155 56.3624C89.8743 56.5209 88.5511 56.402 88.6714 56.2236C88.7315 56.1444 88.6914 56.0651 88.5711 56.0651C88.4709 56.0651 88.3105 55.8867 88.2504 55.6688C88.1301 55.2724 87.9496 55.2724 79.9099 55.2724C74.7774 55.2724 71.5495 55.3517 71.3089 55.4706C70.9881 55.6291 70.948 55.6093 71.0082 55.2922C71.0483 55.0742 71.1886 54.7175 71.3089 54.4995C71.5294 54.0833 71.6497 54.0833 79.7295 54.0833H87.9496L88.0699 53.5879C88.1301 53.3104 88.1501 52.7555 88.11 52.3394C88.0499 51.6061 88.0699 51.5863 88.6914 51.5466C89.2929 51.507 89.3531 51.5466 89.3731 52.0421ZM71.5094 53.687C71.5094 53.7861 71.4092 53.8851 71.2889 53.8851C71.1886 53.8851 71.1485 53.7861 71.2087 53.687C71.2688 53.5681 71.3691 53.4888 71.4292 53.4888C71.4693 53.4888 71.5094 53.5681 71.5094 53.687ZM93.0822 54.8166L94.0044 55.966L93.2426 56.1246C92.8215 56.2038 92.4005 56.2435 92.2802 56.2038C92.1599 56.1642 92.0998 55.6688 92.1399 55.0742C92.18 54.3608 92.0998 53.9644 91.9193 53.8653C91.7389 53.7464 91.7389 53.687 91.8993 53.687C92.0396 53.687 92.5609 54.2022 93.0822 54.8166ZM90.4958 55.3913C90.4357 55.4508 90.2553 55.4706 90.1149 55.4111C89.9545 55.3517 90.0147 55.2922 90.2352 55.2922C90.4557 55.2724 90.576 55.3318 90.4958 55.3913ZM82.2757 56.7785C82.2156 56.838 82.0351 56.8578 81.8948 56.7984C81.7344 56.7389 81.7946 56.6795 82.0151 56.6795C82.2356 56.6596 82.3559 56.7191 82.2757 56.7785ZM74.2561 57.3731C74.196 57.4325 74.0155 57.4524 73.8752 57.3929C73.7148 57.3334 73.7749 57.274 73.9955 57.274C74.216 57.2542 74.3363 57.3136 74.2561 57.3731ZM70.3065 57.5316C70.3065 57.5713 70.1661 57.6703 69.9857 57.7298C69.8253 57.7893 69.7451 57.7694 69.8052 57.6505C69.9255 57.4524 70.3065 57.3731 70.3065 57.5316ZM75.2586 58.9585C75.1984 59.018 75.018 59.0378 74.8776 58.9783C74.7172 58.9189 74.7774 58.8594 74.9979 58.8594C75.2185 58.8396 75.3388 58.8991 75.2586 58.9585Z" fill="#F1F1F1"/>
<path d="M95.2674 31.9073C95.1872 32.0263 95.3877 32.383 95.7485 32.7397C96.2297 33.2351 96.4102 33.3144 96.6107 33.1162C96.7911 32.9379 96.771 32.7595 96.4302 32.3433C95.9891 31.729 95.4879 31.5506 95.2674 31.9073Z" fill="#F1F1F1"/>
<path d="M99.0167 32.1452C98.5355 32.6407 98.4553 32.9776 98.756 33.1757C98.9966 33.3145 99.979 32.3632 99.979 31.9867C99.979 31.5507 99.4979 31.63 99.0167 32.1452Z" fill="#F1F1F1"/>
<path d="M23.9126 33.057C23.4113 33.5524 23.1707 33.9488 23.2509 34.1469C23.4514 34.6622 24.0729 34.5037 24.7947 33.7704C25.3561 33.2155 25.4363 32.9975 25.2759 32.7399C24.9351 32.185 24.7145 32.2444 23.9126 33.057Z" fill="#F1F1F1"/>
<path d="M28.0425 32.5218C27.6615 32.8983 27.7618 33.156 28.4635 33.8298C29.6263 34.9396 30.5887 34.3847 29.486 33.255C28.7041 32.4425 28.3232 32.2443 28.0425 32.5218Z" fill="#F1F1F1"/>
<path d="M56.372 34.0675C54.0664 34.2657 48.5729 34.7017 44.1622 35.0386C35.8819 35.6926 35.4007 35.7718 35.12 36.6438C35.0599 36.842 35.1 38.368 35.2203 40.0525C35.3406 41.7172 35.4408 46.5527 35.4408 50.7937V58.5029L35.8819 57.8885C36.4032 57.1354 36.6237 57.0958 36.6237 57.73C36.6237 58.0074 36.7039 58.4434 36.8242 58.7407C36.9245 59.0181 36.9445 59.2163 36.8443 59.1568C36.744 59.0974 36.6037 59.1767 36.5435 59.355C36.343 59.8703 36.4032 60.0288 36.8042 60.0288C37.0247 60.0288 37.2653 60.2666 37.4257 60.6234C37.5861 60.9999 37.8668 61.2773 38.1875 61.3566C38.4682 61.4161 42.458 61.1783 47.0292 60.8215C51.6204 60.4648 56.5926 60.1081 58.0762 60.009C61.9056 59.7712 63.9706 59.5136 64.0508 59.2559C64.0909 59.1172 64.3515 58.7605 64.6122 58.4434L65.1134 57.8687L64.1912 46.414C63.6899 40.1119 63.2288 34.8008 63.1687 34.6026C63.0283 34.127 62.0459 33.6712 61.2439 33.691C60.8831 33.7108 58.6977 33.8892 56.372 34.0675ZM62.1662 35.2962C62.2263 35.5539 62.5872 39.9336 62.9882 45.0664C63.3892 50.1992 63.7501 55.0546 63.8303 55.8671C63.8904 56.8183 63.8704 57.2742 63.7501 57.1552C63.6298 57.0363 63.0283 56.3031 62.4068 55.5104L61.264 54.0835V45.5618C61.264 40.3299 61.1838 37.0798 61.0836 37.1393C60.9633 37.1987 60.9432 37.1393 61.0034 36.9807C61.1237 36.6438 60.7828 36.4853 60.0811 36.5249C59.4997 36.5646 59.2791 36.3267 59.2791 35.6331C59.2791 34.9197 59.3794 34.8602 60.8029 34.8602C61.9657 34.8602 62.086 34.8999 62.1662 35.2962ZM58.2967 36.0889C58.2967 36.6636 58.397 37.6744 58.4772 38.3283C58.5774 38.9823 58.6576 42.4504 58.6777 46.0573C58.6777 50.9523 58.7579 52.617 58.9383 52.7359C59.0786 52.8151 58.7378 52.8944 58.1764 52.8944H57.174V44.7295V36.5447L49.8761 36.5051C45.8663 36.4853 42.5382 36.4258 42.478 36.3664C42.4179 36.2871 42.6384 36.2475 42.9592 36.2277C43.28 36.2277 46.5279 35.97 50.1568 35.6529C53.8057 35.3557 57.1138 35.098 57.5349 35.0782L58.2767 35.0584L58.2967 36.0889ZM39.1098 37.7734C39.1699 38.4076 39.2902 42.2919 39.3504 46.3942C39.4907 53.5484 39.5108 53.8853 39.8717 53.8853C40.3127 53.8853 40.5132 54.3213 40.3528 54.9357C40.2726 55.2527 40.1123 55.3915 39.7915 55.3915C39.4907 55.3716 39.1499 55.6689 38.6086 56.422C38.0472 57.1949 37.8467 57.3732 37.7465 57.1354C37.546 56.64 37.6061 55.114 37.8267 54.9753C37.947 54.896 38.0272 51.6459 38.0071 45.8987C37.9871 40.9641 37.9871 36.8816 38.0071 36.7826C38.0071 36.7033 38.2477 36.6438 38.5083 36.6438C38.9294 36.6438 38.9895 36.7429 39.1098 37.7734ZM46.0869 39.557C45.2047 40.6867 45.0443 41.083 45.0443 42.1928C45.0443 43.5008 45.5054 44.4719 46.4678 45.1655L47.2297 45.7006L46.2272 45.8195C45.0644 45.9582 44.7235 45.7997 44.0619 44.8682C43.7211 44.3728 43.6008 43.8773 43.5607 42.8072C43.5206 42.0343 43.5607 41.4596 43.6409 41.4992C43.701 41.5388 43.8815 41.2614 44.0218 40.8848C44.1622 40.5083 44.6032 39.9732 45.0042 39.6958C45.4052 39.3985 45.5856 39.2201 45.4052 39.2796C45.2047 39.3589 45.0042 39.3192 44.9441 39.2201C44.8839 39.1211 45.0844 39.0814 45.4052 39.1211C45.7059 39.1607 46.1069 39.1012 46.2673 39.0021C46.7284 38.7049 46.7084 38.7841 46.0869 39.557ZM51.4801 39.7156C52.1216 40.0525 53.1441 41.4992 52.9637 41.7965C52.683 42.2324 51.6405 41.9946 51.1192 41.4001C50.7182 40.9047 50.4776 40.8056 49.7558 40.8056C48.2522 40.8056 47.3099 42.0343 48.2121 42.8468C48.3925 43.0252 49.2145 43.2828 49.9964 43.4612C50.7984 43.6197 51.7808 43.9764 52.2018 44.2539C52.6229 44.5313 52.8634 44.7691 52.7632 44.7691C52.6429 44.7691 52.7432 44.9079 52.9436 45.0664C53.1642 45.2249 53.2845 45.3637 53.2043 45.3637C53.1241 45.3637 53.1842 45.6213 53.3647 45.9582C53.6855 46.5725 53.6454 47.6427 53.2644 48.3363C52.7632 49.2678 50.4175 49.9019 48.7534 49.5254C47.6306 49.2678 46.8888 48.7525 46.4077 47.8805C45.9265 47.0085 45.9465 46.9491 46.7485 46.9491C47.1294 46.9491 47.4502 47.0284 47.4502 47.1473C47.4502 47.4049 48.9338 48.0985 49.7358 48.2372C51.1994 48.4552 52.3021 47.5238 51.9813 46.2951C51.8409 45.7402 51.039 45.3835 49.014 44.9673C46.4878 44.4719 45.4453 42.8864 46.4077 41.0236C47.1094 39.6363 49.8962 38.9229 51.4801 39.7156ZM40.7739 40.9443C40.7137 41.1425 40.6736 41.0236 40.6736 40.7065C40.6736 40.3696 40.7137 40.2308 40.7739 40.3498C40.814 40.4885 40.814 40.7659 40.7739 40.9443ZM50.2571 41.9946C50.4175 42.0937 50.4776 42.2324 50.4175 42.2919C50.217 42.4901 49.0341 42.1928 49.1744 41.9748C49.3148 41.737 49.8761 41.7568 50.2571 41.9946ZM44.1221 46.0573C44.6433 46.0573 44.7235 46.1564 44.9641 47.0878C45.6257 49.6443 47.2297 50.7739 50.1167 50.6946C51.5402 50.655 52.0615 50.8136 51.1793 51.0315C50.8986 51.091 50.6581 51.2099 50.6581 51.2892C50.6581 51.3684 50.4175 51.4279 50.1167 51.4477C48.4527 51.5072 47.4903 51.4874 46.949 51.4477C45.5455 51.2892 43.8614 49.9218 43.4404 48.594C43.3201 48.1778 43.1597 47.7022 43.0996 47.5436C42.7788 46.6915 42.8991 45.6609 43.3001 45.8987C43.4404 45.978 43.8013 46.0573 44.1221 46.0573ZM50.3172 46.3744C50.7583 46.4933 51.059 46.6716 50.9989 46.8104C50.8786 47.1869 49.5554 47.2067 49.1744 46.85C48.4928 46.1564 48.9138 45.978 50.3172 46.3744ZM48.9539 47.5436C49.014 47.6427 48.994 47.7418 48.8737 47.7418C48.7734 47.7418 48.613 47.6427 48.5529 47.5436C48.4928 47.4247 48.5128 47.3454 48.6331 47.3454C48.7333 47.3454 48.8937 47.4247 48.9539 47.5436ZM45.305 53.6277C45.1646 53.6673 44.924 53.6673 44.8037 53.6277C44.6634 53.5682 44.7636 53.5286 45.0443 53.5286C45.325 53.5286 45.4253 53.5682 45.305 53.6277ZM58.6777 54.1826C58.798 54.3411 58.8581 54.5591 58.798 54.6582C58.6376 54.896 59.8405 56.5805 60.1012 56.5211C60.1813 56.4814 60.2014 56.6202 60.1412 56.7985C60.0611 57.0165 60.0811 57.076 60.2415 56.9769C60.4019 56.8778 60.442 56.9372 60.3618 57.1354C60.3016 57.3138 60.3217 57.4525 60.442 57.4525C60.5422 57.4525 60.6826 57.6309 60.7427 57.8489C60.8029 58.0669 60.9432 58.2452 61.0435 58.2452C61.2239 58.2452 61.2239 57.7498 61.0435 56.5805C60.9232 55.8076 61.4645 56.0851 62.3667 57.2147L63.2889 58.4038L62.6273 58.5029C62.2865 58.5623 61.4244 58.6218 60.7427 58.6218L59.5197 58.6416L58.7178 57.4525C58.2967 56.7985 57.8757 56.3229 57.7755 56.422C57.6752 56.5013 57.6752 56.4418 57.7554 56.3031C57.8557 56.1445 57.7755 55.8869 57.5549 55.6491C57.2141 55.2726 56.9535 55.2527 50.3172 55.2924C46.5279 55.3122 43.3802 55.2924 43.3401 55.2329C43.28 55.1933 46.3676 54.896 50.217 54.5987C54.0463 54.3015 57.3544 54.0439 57.575 54.0042C57.7955 53.9646 58.0762 53.9249 58.1965 53.9051C58.3168 53.9051 58.5373 54.024 58.6777 54.1826ZM53.4048 58.9587C53.3446 59.0181 53.1642 59.0379 53.0238 58.9785C52.8634 58.919 52.9236 58.8596 53.1441 58.8596C53.3647 58.8398 53.485 58.8992 53.4048 58.9587ZM41.5959 60.1279C41.4154 60.2666 38.6286 60.3657 38.6286 60.227C38.6286 60.1279 38.8291 60.0288 39.0898 59.9892C39.5709 59.9297 41.7162 60.0288 41.5959 60.1279Z" fill="#F1F1F1"/>
<path d="M95.6884 35.4346C95.1471 35.9895 95.127 36.4453 95.6282 36.4453C96.0292 36.4453 96.8312 35.4742 96.6908 35.1572C96.5305 34.7212 96.3099 34.7806 95.6884 35.4346Z" fill="#F1F1F1"/>
<path d="M98.5751 35.2166C98.5751 35.613 99.357 36.4453 99.738 36.4453C100.179 36.4453 99.9786 35.6922 99.4573 35.2761C98.7957 34.7608 98.5751 34.7608 98.5751 35.2166Z" fill="#F1F1F1"/>
<path d="M29.9276 36.188C29.8474 36.2871 25.0155 36.3862 19.2214 36.4457L8.65553 36.5447V37.1789C8.65553 37.8131 8.63548 37.8329 7.81347 37.8329C7.01151 37.8329 6.99146 37.8131 7.07165 37.2978C7.1318 37.0005 7.07165 36.7033 6.91126 36.624C6.51028 36.3664 5.02665 36.4258 4.80611 36.6835C4.58557 36.9807 4.44523 38.4076 4.46528 40.211C4.48533 40.9245 4.50538 45.324 4.52543 50.0208C4.56552 58.483 4.56552 58.5425 4.94646 58.047C5.167 57.7696 5.34744 57.4921 5.34744 57.3931C5.34744 57.3138 5.42763 57.2543 5.52788 57.2543C5.62812 57.2543 5.74842 57.5912 5.78852 58.0074C5.84866 58.4038 5.94891 58.8992 6.0291 59.0974C6.1494 59.3352 6.1093 59.4343 5.84866 59.4343C5.66822 59.4343 5.56798 59.5136 5.62812 59.6127C5.70832 59.7117 5.62812 59.8505 5.50783 59.8901C5.34744 59.9694 5.36749 60.009 5.56798 60.009C5.82861 60.0288 5.92886 60.3063 6.04915 61.1188C6.1895 62.3079 6.81102 63.4573 7.45259 63.7348C7.95381 63.9527 32.2533 62.0899 33.0753 61.7728C33.376 61.6539 33.6166 61.4755 33.6166 61.3566C33.6166 61.2377 33.797 60.9603 34.0176 60.7224L34.4186 60.2865L33.7168 51.4874C33.3359 46.6518 32.9149 41.519 32.8146 40.1119C32.574 37.1987 32.3936 36.5844 31.6919 36.2673C31.1305 36.0097 30.1481 35.97 29.9276 36.188ZM31.4914 37.8725C31.6718 39.0021 33.2557 59.4739 33.1555 59.5532C33.1154 59.5928 32.554 58.9587 31.8924 58.1263C30.5691 56.4022 29.8674 55.2527 30.3686 55.5302C30.4488 55.5896 30.4689 55.0744 30.4087 54.4204C30.3486 53.7466 30.3285 49.6047 30.3686 45.2051L30.4087 37.2384H30.91C31.2909 37.2384 31.4112 37.3573 31.4914 37.8725ZM27.662 39.2201C27.7422 40.1516 27.8224 44.135 27.8625 48.0985L27.9026 55.2726L25.4967 55.2924C24.1735 55.3122 20.3241 55.332 16.9358 55.3518L10.7607 55.3716L10.6404 54.8167C10.5802 54.4997 10.5802 54.2024 10.6404 54.1429C10.7005 54.0835 14.1089 54.0439 18.239 54.0439C22.349 54.0637 25.8977 54.024 26.1383 53.9646L26.5794 53.8457V45.9582C26.5994 40.429 26.5192 38.0113 26.3789 37.9122C26.0581 37.7338 26.5794 37.4167 27.1006 37.4762C27.4615 37.5356 27.5217 37.7536 27.662 39.2201ZM6.00906 37.7734C5.86871 37.8131 5.62812 37.8131 5.50783 37.7734C5.36749 37.714 5.46773 37.6744 5.74842 37.6744C6.0291 37.6744 6.12935 37.714 6.00906 37.7734ZM19.6625 39.2201C19.7627 39.3192 19.883 39.7156 19.9231 40.1119C20.0033 40.8056 19.9832 40.8056 19.2214 40.8056C18.7803 40.8056 18.0385 40.865 17.5373 40.9245L16.6551 41.0434L15.372 45.9384C14.2693 50.1992 13.6076 52.2801 13.5675 51.6063C13.5675 51.4874 13.0864 51.4081 12.4648 51.4279C11.8433 51.4279 11.302 51.3883 11.2619 51.309C11.2218 51.2297 11.302 50.7541 11.4624 50.2388C11.6228 49.7038 11.703 49.1885 11.6228 49.0696C11.5626 48.9705 11.6027 48.9309 11.703 48.9903C11.8233 49.0696 12.0238 48.7327 12.1842 48.1778C12.3245 47.6625 12.6052 46.8896 12.8057 46.4338C13.0062 45.978 13.1866 45.4429 13.2267 45.2448C13.2668 45.0466 13.4072 44.6106 13.5274 44.3133C13.6678 43.9962 13.768 43.6395 13.768 43.5008C13.768 43.3819 13.8482 43.1837 13.9485 43.0846C14.2091 42.8072 14.8707 40.5678 14.8106 40.1516C14.7905 39.9534 14.8707 39.8543 14.971 39.9138C15.0913 39.9732 15.1715 39.8741 15.1715 39.676C15.1715 39.458 15.2517 39.2201 15.3519 39.1012C15.5925 38.8832 19.4018 38.9823 19.6625 39.2201ZM8.35479 40.0129C8.35479 40.5479 8.41494 41.0037 8.51519 41.0037C8.59538 41.0037 8.63548 43.8971 8.61543 47.4247C8.57533 51.963 8.61543 53.9051 8.77582 54.0042C8.89612 54.0637 9.07656 54.0042 9.1768 53.8655C9.31715 53.6475 9.35725 53.6475 9.35725 53.8457C9.35725 53.9844 9.43744 54.0637 9.51764 54.0042C9.59783 53.9646 9.63793 54.2222 9.59783 54.5987C9.53769 55.1536 9.43744 55.2726 9.03646 55.2726C8.41494 55.2726 7.15185 56.9967 7.57288 57.294C7.79342 57.4525 7.77337 57.4723 7.51273 57.3732C7.29219 57.3138 7.15185 57.3732 7.15185 57.512C7.15185 57.6705 7.07165 57.6309 6.95136 57.4525C6.69072 57.0562 6.69072 55.332 6.95136 55.1735C7.07165 55.0942 7.15185 52.1612 7.15185 47.0284V39.022H7.75332C8.33474 39.022 8.35479 39.0418 8.35479 40.0129ZM21.1862 44.9078C23.151 49.1092 23.993 51.1703 23.7926 51.3684C23.7124 51.4675 23.3314 51.5072 22.9705 51.4675C22.3691 51.4081 22.2287 51.2892 21.7075 50.2587L21.126 49.0894L19.9231 49.2281C19.0409 49.3272 18.6801 49.3074 18.5798 49.1092C18.3793 48.812 17.016 48.693 16.5549 48.9507C16.3744 49.0498 16.1539 49.3669 16.0536 49.6641C15.7729 50.7145 15.4121 51.5072 15.2517 51.5072C15.0712 51.5072 15.2717 50.5757 16.4546 46.1167L17.5172 42.0937L18.3994 41.9748C18.8805 41.9154 19.3818 41.8361 19.5021 41.8361C19.6224 41.8163 20.3842 43.2035 21.1862 44.9078ZM20.705 50.7937C20.8453 51.3883 20.6449 51.7648 20.3241 51.5666C20.0634 51.4081 19.9431 51.3684 19.462 51.3288C19.3016 51.3288 19.2214 51.2099 19.2815 51.1108C19.3417 50.9919 19.3216 50.9126 19.2013 50.9126C19.081 50.9126 19.0409 50.7739 19.1011 50.6154C19.1813 50.437 19.482 50.3181 19.903 50.3181C20.4444 50.3181 20.6048 50.4172 20.705 50.7937ZM15.4722 51.9035C15.5324 52.0026 15.4923 52.1017 15.392 52.1017C15.2717 52.1017 15.1715 52.0026 15.1715 51.9035C15.1715 51.7846 15.2116 51.7054 15.2517 51.7054C15.3118 51.7054 15.4121 51.7846 15.4722 51.9035ZM18.1187 52.1413C18.0585 52.2999 17.9984 52.2404 17.9984 52.0224C17.9783 51.8044 18.0385 51.6855 18.0986 51.7648C18.1588 51.8243 18.1788 52.0026 18.1187 52.1413ZM26.3989 52.1413C26.3989 52.2603 26.2786 52.2404 26.0982 52.1017C25.9378 51.963 25.7975 51.8243 25.7975 51.7846C25.7975 51.745 25.9378 51.7648 26.0982 51.8243C26.2586 51.9035 26.3989 52.0423 26.3989 52.1413ZM13.5074 52.3395C13.4473 52.4981 13.3871 52.4386 13.3871 52.2206C13.3671 52.0026 13.4272 51.8837 13.4873 51.963C13.5475 52.0224 13.5675 52.2008 13.5074 52.3395ZM6.89121 53.7268C6.83107 53.8655 6.79097 53.7664 6.79097 53.489C6.79097 53.2115 6.83107 53.1124 6.89121 53.2313C6.93131 53.37 6.93131 53.6079 6.89121 53.7268ZM29.1457 56.7985C29.3461 57.1156 29.6068 57.4327 29.7471 57.512C29.8875 57.5912 30.0078 57.7894 30.0078 57.948C30.0078 58.1065 30.108 58.2849 30.2484 58.3641C30.3887 58.4632 30.4087 58.4236 30.3085 58.2254C29.9276 57.6309 30.7696 58.4632 31.6919 59.6127L32.6342 60.8017L31.9726 60.9008C31.6117 60.9603 26.5393 61.3566 20.685 61.8124C14.8507 62.2484 9.57779 62.6646 8.99636 62.724L7.93376 62.843L8.57533 61.6737C8.93622 61.0395 9.31715 60.4054 9.45749 60.2666C9.63793 60.0685 11.7631 60.009 19.5422 60.0288C26.6596 60.0288 29.4063 59.9694 29.4063 59.8108C29.4063 59.6919 29.2058 59.3154 28.9652 58.9785C28.7046 58.6416 28.4038 58.166 28.2835 57.948C28.1632 57.73 27.9628 57.5714 27.8224 57.6111C27.6821 57.6309 27.6219 57.5714 27.7021 57.4525C27.7823 57.3336 27.7222 57.1156 27.6019 56.9571C27.261 56.5607 27.5217 56.2634 28.2033 56.2634C28.6244 56.2634 28.885 56.422 29.1457 56.7985ZM6.79097 58.6812C6.67067 58.8001 6.65062 58.6812 6.71077 58.3047C6.81102 57.8885 6.85111 57.8489 6.91126 58.1263C6.95136 58.3245 6.91126 58.5623 6.79097 58.6812ZM8.13425 60.1675C8.03401 60.4846 7.77337 60.9404 7.55283 61.2179L7.15185 61.7133V60.8612C7.15185 60.1675 7.212 60.0288 7.53278 60.0288C7.75332 60.0288 7.99391 59.9297 8.05406 59.8306C8.29465 59.4541 8.33474 59.6325 8.13425 60.1675Z" fill="#F1F1F1"/>
<path d="M18.2185 45.5224C17.978 46.5727 17.7775 47.5438 17.7775 47.6825C17.7775 47.8609 18.1383 47.9005 19.1408 47.8014C19.8826 47.742 20.5041 47.6627 20.5442 47.6429C20.6244 47.5834 18.9002 43.5802 18.7799 43.5802C18.7198 43.5802 18.4792 44.4522 18.2185 45.5224Z" fill="#F1F1F1"/>
<path d="M68.3015 61.1782C68.3015 61.6341 69.2037 62.4862 69.4843 62.3079C69.8252 62.1097 69.745 61.7133 69.2438 61.2575C68.6824 60.7224 68.3015 60.7026 68.3015 61.1782Z" fill="#F1F1F1"/>
<path d="M71.91 61.2969C71.489 61.7528 71.4689 62.4067 71.8699 62.4067C72.2108 62.4067 72.9526 61.4357 72.8523 61.1384C72.6719 60.7024 72.4513 60.742 71.91 61.2969Z" fill="#F1F1F1"/>
<path d="M0.0139874 61.2374C-0.0461597 61.3563 0.154331 61.7329 0.515214 62.0698C0.996391 62.5652 1.17683 62.6445 1.37732 62.4463C1.55776 62.2679 1.49762 62.0896 1.03649 61.614C0.414968 60.96 0.234527 60.9005 0.0139874 61.2374Z" fill="#F1F1F1"/>
<path d="M3.64316 61.614C3.18203 62.0896 3.12188 62.2679 3.30233 62.4463C3.50282 62.6445 3.68326 62.5652 4.16443 62.0698C4.52532 61.7329 4.72581 61.3563 4.66566 61.2374C4.44512 60.9005 4.26468 60.96 3.64316 61.614Z" fill="#F1F1F1"/>
<path d="M23.3112 63.497C22.9102 63.8934 22.9102 64.0717 23.2912 64.3888C23.4716 64.5474 23.8525 64.587 24.2936 64.5077C24.9352 64.3888 25.0154 64.3095 24.9552 63.8339C24.9151 63.3979 24.7748 63.279 24.2736 63.2394C23.8926 63.1998 23.5117 63.2988 23.3112 63.497Z" fill="#F1F1F1"/>
<path d="M20.645 63.5366C19.7428 63.715 19.9433 64.7852 20.8856 64.7852C21.9081 64.7852 22.3291 64.2104 21.7477 63.6357C21.5071 63.3979 21.4269 63.3781 20.645 63.5366Z" fill="#F1F1F1"/>
<path d="M17.3162 63.9131C17.2361 63.9924 17.1759 64.2698 17.1759 64.5275C17.1759 64.9635 17.2361 65.0031 18.038 64.9436C18.7798 64.8842 18.8801 64.8247 18.8801 64.3887C18.8801 63.9726 18.7798 63.8933 18.1784 63.8338C17.7774 63.7942 17.3964 63.8338 17.3162 63.9131Z" fill="#F1F1F1"/>
<path d="M14.3893 64.25C13.9482 64.7851 14.3492 65.2013 15.2514 65.1418C15.9732 65.0823 16.0734 65.0229 16.0734 64.5869C16.0734 64.1707 15.9732 64.0915 15.3517 64.032C14.9106 63.9924 14.5497 64.0716 14.3893 64.25Z" fill="#F1F1F1"/>
<path d="M68.7423 64.448C68.2612 64.9633 68.1609 65.5776 68.5619 65.5776C68.9829 65.5776 69.7648 64.6462 69.6445 64.3093C69.4641 63.8733 69.2436 63.9129 68.7423 64.448Z" fill="#F1F1F1"/>
<path d="M71.5693 64.3093C71.449 64.6462 72.2309 65.5776 72.652 65.5776C73.073 65.5776 72.9527 64.884 72.4515 64.4282C71.8901 63.9129 71.7297 63.8931 71.5693 64.3093Z" fill="#F1F1F1"/>
<path d="M0.435151 64.7849C-0.0259769 65.2605 -0.086124 65.4388 0.0943174 65.6172C0.294808 65.8154 0.475249 65.7361 0.956426 65.2407C1.31731 64.9038 1.5178 64.5272 1.45765 64.4083C1.23711 64.0714 1.05667 64.1309 0.435151 64.7849Z" fill="#F1F1F1"/>
<path d="M3.22193 64.4083C3.16179 64.5272 3.36228 64.9038 3.72316 65.2407C4.20434 65.7361 4.38478 65.8154 4.58527 65.6172C4.76571 65.4388 4.70556 65.2605 4.24444 64.7849C3.62292 64.1309 3.44247 64.0714 3.22193 64.4083Z" fill="#F1F1F1"/>
<path d="M11.6225 64.3097C11.2616 64.4682 11.3017 65.3204 11.6626 65.4591C11.823 65.5185 12.244 65.5185 12.5848 65.4393C13.0861 65.3402 13.1863 65.2411 13.1262 64.8051C13.0861 64.3889 12.9457 64.2898 12.4645 64.2502C12.1438 64.2304 11.7428 64.2502 11.6225 64.3097Z" fill="#F1F1F1"/>
<path d="M8.69532 64.5274C8.43469 64.5868 8.35449 64.7652 8.39459 65.1417C8.43469 65.5777 8.57503 65.6966 9.07626 65.7363C9.89827 65.8155 10.4396 65.3201 10.1589 64.7652C9.95841 64.4085 9.47724 64.3292 8.69532 64.5274Z" fill="#F1F1F1"/>
</svg>
