<svg width="40" height="40" viewBox="0 0 40 40" fill="none" xmlns="http://www.w3.org/2000/svg">
<path d="M38.5087 20.5892V20.5894V36.0491C38.5087 36.8317 38.1978 37.5823 37.6444 38.1357C37.091 38.6891 36.3405 39 35.5579 39H3.95087C3.16825 39 2.41769 38.6891 1.86429 38.1357C1.31089 37.5823 1 36.8317 1 36.0491V20.5894V20.5892C0.9999 19.6498 1.1916 18.7202 1.56335 17.8574C1.9351 16.9946 2.47909 16.2169 3.16197 15.5717L3.16209 15.5716L17.727 1.80673L17.7271 1.8066C18.275 1.28861 19.0004 1 19.7544 1C20.5083 1 21.2337 1.28861 21.7816 1.8066L21.7818 1.80673L36.3466 15.5716L36.3468 15.5717C37.0297 16.2169 37.5736 16.9946 37.9454 17.8574C38.3171 18.7202 38.5088 19.6498 38.5087 20.5892Z" stroke="#C4B2F0" stroke-width="2" stroke-linecap="round" stroke-linejoin="round"/>
</svg>
