<svg width="28" height="40" viewBox="0 0 28 40" fill="none" xmlns="http://www.w3.org/2000/svg">
<path d="M0.320297 39.4869C0.0417973 39.1514 -0.0562699 38.167 0.0325273 36.5988C0.183482 33.9277 0.966335 32.6896 2.75241 32.2973C3.68131 32.0935 3.73471 31.9845 3.73471 30.2975C3.73471 28.294 4.13511 27.6933 5.46989 27.6933C6.7851 27.6933 7.10695 27.1121 7.5293 23.9738C7.93377 20.9681 7.83888 12.8877 7.39408 12.4431C7.24515 12.2941 6.39944 12.0895 5.51454 11.9876L3.90564 11.8027L3.82937 9.92325C3.78739 8.88949 3.57954 6.46363 3.3674 4.53245C2.88878 0.17562 2.98271 0.0129367 5.9734 0.0129367C8.48781 0.0129367 9.20249 0.505045 9.20249 2.23639C9.20249 3.70025 9.78136 5.24393 10.227 4.96849C10.4151 4.85225 10.5693 3.98695 10.5693 3.0459C10.5693 0.357769 10.8963 0.0129367 13.4442 0.0129367C14.7924 0.0129367 15.7494 0.178804 15.976 0.451936C16.1762 0.693303 16.3874 1.80827 16.445 2.9295C16.5241 4.46722 16.6755 4.96806 17.0623 4.96806C17.4231 4.96806 17.6762 4.36055 17.9166 2.91767C18.1047 1.78995 18.3828 0.67506 18.5348 0.440111C18.9296 -0.169925 23.348 -0.135935 23.86 0.480883C24.1413 0.819926 24.1547 1.59759 23.9089 3.3002C23.722 4.59337 23.5658 6.88931 23.5621 8.40233C23.5541 11.5441 23.3002 11.9735 21.4487 11.9735C20.5698 11.9735 20.0634 12.1632 19.8506 12.5715C19.247 13.7303 19.0675 17.7824 19.4486 21.65C19.9935 27.1827 20.103 27.4981 21.5264 27.6358C23.2682 27.8041 23.6129 28.2511 23.5091 30.2062C23.4208 31.8736 23.4466 31.9248 24.5788 32.306C26.2623 32.8728 27.0734 34.1567 27.2447 36.526C27.5152 40.2658 28.5714 39.9957 13.6751 39.9957C2.63867 39.9957 0.681195 39.921 0.320759 39.4868L0.320297 39.4869ZM24.7512 36.2367V34.6988H13.6448H2.53851L2.42913 35.842C2.21521 38.0738 1.60074 37.9638 13.7215 37.8646L24.7514 37.7747L24.7512 36.2367ZM21.5048 31.5177C21.5048 31.1778 21.3122 30.6363 21.077 30.3146C20.6924 29.7886 19.9079 29.739 13.3026 29.8221L5.95582 29.9145L5.84887 31.0252L5.74189 32.1358H13.6234C20.9996 32.1358 21.505 32.0955 21.505 31.5177H21.5048ZM17.493 25.9846C17.4482 25.1388 17.3493 21.6788 17.2735 18.2956C17.1976 14.9124 17.0256 11.8753 16.8916 11.5463C16.3923 10.3227 16.932 9.92313 19.0791 9.92313C20.7269 9.92313 21.1501 9.80847 21.289 9.32505C21.5889 8.28079 21.6801 2.9346 21.4053 2.50534C20.8438 1.62847 20.1761 2.49325 19.946 4.39844C19.8172 5.46352 19.5581 6.52711 19.3705 6.76206C19.1626 7.02199 18.1906 7.18924 16.8862 7.18924C14.4192 7.18924 14.3285 7.08509 14.3285 4.25654C14.3285 2.6328 14.2445 2.40495 13.645 2.40495C13.0515 2.40495 12.9615 2.63298 12.9615 4.13607C12.9615 6.85246 12.6411 7.18924 10.058 7.18924H7.86188L7.5277 5.90771C7.34405 5.2029 7.14587 4.16486 7.08734 3.60099C7.00864 2.84182 6.7838 2.54777 6.21994 2.46765C5.46621 2.36069 5.46062 2.39254 5.65065 5.71408C5.7564 7.55916 5.90171 9.26104 5.97396 9.49595C6.06679 9.79827 7.04637 9.92313 9.32074 9.92313C11.7619 9.92313 12.6385 10.0466 12.9615 10.4357C13.5869 11.1892 12.8477 11.9119 11.3209 12.0399L10.074 12.1444L10.0196 17.7831C9.9913 20.8843 9.79431 24.2452 9.58576 25.2517C9.37708 26.2582 9.29477 27.2241 9.40213 27.3982C9.50949 27.5721 11.3926 27.6714 13.5863 27.6185L17.575 27.5225L17.493 25.9846Z" fill="#C4B2F0"/>
</svg>
