<svg width="35" height="40" viewBox="0 0 35 40" fill="none" xmlns="http://www.w3.org/2000/svg">
<path d="M16.7452 39.7233C14.8529 38.7428 12.9824 37.4487 12.8107 37.0011C12.6271 36.5229 13.1865 35.6397 13.6729 35.6397C13.8296 35.6397 14.6815 36.0852 15.5664 36.6297C16.4513 37.1742 17.4701 37.6196 17.8302 37.6196C18.9637 37.6196 22.2924 35.1916 24.6923 32.6143C29.095 27.8862 32.0214 20.6345 32.8464 12.4082C32.9703 11.1721 33.8909 10.542 34.574 11.2255C35.5776 12.2297 33.7093 21.2155 31.4498 26.2515C29.3659 30.8961 25.5795 35.4711 21.6083 38.1429C18.8168 40.0209 17.8967 40.3199 16.7452 39.7233ZM1.31754 38.0596C0.841296 37.5834 1.16362 36.9406 2.74757 35.2075C3.65505 34.2145 4.39752 33.3206 4.39752 33.221C4.39752 33.1212 3.80353 32.3535 3.07752 31.5147C1.62231 29.8333 1.42304 28.912 2.40138 28.3884C2.92794 28.1066 3.1983 28.2087 3.88498 28.9493L4.72468 29.8549L5.66661 28.8698C6.18464 28.328 10.3198 23.726 14.8559 18.6431L23.1032 9.40145L27.6085 7.67067C32.3741 5.84001 33.3431 5.64052 33.6454 6.42835C33.898 7.08611 30.5559 15.8045 29.6788 16.7766C29.2956 17.2011 24.713 21.3587 19.4949 26.0158C14.2768 30.6729 10.0075 34.6639 10.0075 34.8848C10.0075 35.1058 10.3045 35.4454 10.6675 35.6397C11.4059 36.0348 11.5325 36.9527 10.9314 37.5537C10.2808 38.2043 9.73702 38.0182 8.23059 36.6297C7.44301 35.9037 6.60784 35.3097 6.37469 35.3097C6.14161 35.3097 5.23644 35.9779 4.36326 36.7946C2.89383 38.1691 1.85736 38.5996 1.31743 38.0596H1.31754ZM18.3633 24.1877L28.3881 15.2106L29.4277 12.4561C30.4296 9.80153 30.6501 8.90991 30.3046 8.90991C30.215 8.90991 28.811 9.44254 27.1844 10.0936L24.227 11.2773L15.3847 21.1708C10.5215 26.6122 6.49694 31.337 6.44124 31.6702C6.34419 32.2504 7.57735 33.4283 8.0944 33.2492C8.22887 33.2029 12.8497 29.125 18.3633 24.1877ZM18.9111 20.2873C18.5568 19.8604 19.0718 19.2017 22.3278 15.9148C25.5561 12.6559 26.2508 12.1007 26.7273 12.3985C27.0383 12.5929 27.3557 12.94 27.4323 13.1698C27.6085 13.6981 20.5507 20.7898 19.8488 20.7898C19.5623 20.7898 19.1405 20.5637 18.9111 20.2873ZM3.93619 25.2313C2.81496 24.1101 1.15431 17.2787 0.605061 11.5284C0.432008 9.71817 0.496311 9.24707 0.995321 8.66399C1.75434 7.77716 16.9121 0 17.8815 0C18.8453 0 27.498 4.56759 27.7428 5.20559C27.8499 5.48466 27.6749 5.89535 27.3466 6.13532C26.8373 6.50794 26.1907 6.28068 22.5127 4.43762C20.1775 3.2674 18.0048 2.31407 17.6846 2.31902C17.3642 2.32292 13.9097 3.9946 10.0075 6.03149L2.91254 9.73497L2.80573 11.0452C2.65061 12.947 3.65014 18.4831 4.76345 21.8899C5.49874 24.14 5.63776 24.9433 5.35152 25.2882C4.86865 25.87 4.56253 25.8577 3.93619 25.2312V25.2313Z" fill="#C4B2F0"/>
</svg>
