<svg width="25" height="18" viewBox="0 0 25 18" fill="none" xmlns="http://www.w3.org/2000/svg">
<g clip-path="url(#clip0_764_2676)">
<path d="M16.25 7.71429H25V10.2857H16.25V7.71429ZM17.5 12.8571H25V15.4286H17.5V12.8571ZM15 2.57143H25V5.14286H15V2.57143ZM2.5 18H15V16.7143C15 13.1696 12.1962 10.2857 8.75 10.2857H6.25C2.80375 10.2857 0 13.1696 0 16.7143V18H2.5ZM7.5 9C9.99375 9 11.875 7.065 11.875 4.5C11.875 1.935 9.99375 0 7.5 0C5.00625 0 3.125 1.935 3.125 4.5C3.125 7.065 5.00625 9 7.5 9Z" fill="#060606"/>
</g>
<defs>
<clipPath id="clip0_764_2676">
<rect width="25" height="18" fill="white"/>
</clipPath>
</defs>
</svg>
