<svg width="41" height="40" viewBox="0 0 41 40" fill="none" xmlns="http://www.w3.org/2000/svg">
<path d="M19.8152 39.2742C19.7283 38.875 19.6167 38.1914 19.5671 37.7551C19.4875 37.0573 19.2315 36.9124 17.436 36.5502C10.9668 35.245 5.67643 29.9891 4.3675 23.5671C4.13471 22.4241 3.80984 21.4562 3.64586 21.4161C3.48203 21.3761 2.8174 21.2549 2.1692 21.1467C1.52104 21.0385 0.910253 20.7406 0.811954 20.4844C0.53611 19.7659 1.49991 19.0323 2.71946 19.0323C3.65912 19.0323 3.84642 18.9031 4.00537 18.1452C4.10786 17.6573 4.33457 16.6246 4.5093 15.8504C5.39993 11.906 8.98157 7.38499 12.809 5.37387C14.7382 4.36018 15.7094 4.03748 18.751 3.39957C19.5089 3.24069 19.6381 3.05321 19.6381 2.11366C19.6381 1.21019 20.2846 0 20.7671 0C21.2497 0 21.8961 1.21019 21.8961 2.11366C21.8961 3.05549 22.0234 3.23896 22.7833 3.39068C30.4819 4.92809 35.7483 9.85245 37.1561 16.8302C37.5184 18.6255 37.6632 18.8818 38.361 18.9613C40.1359 19.1632 40.6059 19.3782 40.6059 19.9872C40.6059 20.7391 40.1694 21.0354 38.7131 21.2721C37.6364 21.447 37.5894 21.5178 37.0626 23.7599C35.5389 30.2439 30.8746 34.8909 24.3158 36.4592C22.1304 36.9817 22.0523 37.0346 21.8779 38.1073C21.6413 39.5636 21.3449 40 20.593 40C20.2118 40 19.9122 39.7204 19.8152 39.2742L19.8152 39.2742ZM19.5816 33.3663C19.6841 32.1303 20.1053 31.2903 20.6224 31.2903C21.2327 31.2903 21.8963 32.3847 21.8963 33.3911C21.8963 33.9889 22.0227 34.5561 22.177 34.6516C22.6369 34.9358 26.0805 33.9152 27.8399 32.9733C29.9338 31.8522 32.4581 29.3278 33.5792 27.2339C34.4793 25.5528 35.5459 22.0378 35.2844 21.6147C35.2037 21.484 34.5327 21.2961 33.7931 21.197C31.3701 20.872 31.4636 19.1474 33.9139 18.9701L35.2834 18.871L35.1885 17.5807C35.0559 15.7793 33.1733 11.934 31.5748 10.1998C29.8309 8.30789 27.5385 6.85622 25.0928 6.09505C22.3614 5.24493 21.8973 5.28488 21.8919 6.37085C21.8843 8.00348 21.5433 8.70961 20.7642 8.70961C19.9495 8.70961 19.6382 8.16437 19.6382 6.73763C19.6382 5.4737 19.0785 5.32017 16.8329 5.96826C14.0661 6.76672 12.1072 7.94635 10.1629 9.98471C8.22094 12.0206 7.36992 13.5038 6.57546 16.2366C5.92581 18.4713 6.07996 19.0322 7.34367 19.0322C8.70895 19.0322 9.31565 19.337 9.31565 20.0231C9.31565 20.7638 8.38636 21.2903 7.0788 21.2903C5.87914 21.2903 5.83153 21.6931 6.70086 24.4867C7.85521 28.1956 10.5291 31.3739 13.9929 33.1542C15.5811 33.9704 18.5235 34.854 19.1543 34.7041C19.3318 34.6619 19.5238 34.0599 19.5815 33.3662L19.5816 33.3663ZM19.4821 21.4863C18.4721 20.4763 18.4529 19.6716 19.417 18.7659C20.386 17.8556 21.0957 17.8798 22.0722 18.8562C23.0102 19.7942 23.0629 20.3435 22.2996 21.2264C21.3561 22.3175 20.4018 22.4056 19.4824 21.4863L19.4821 21.4863Z" fill="#C4B2F0"/>
</svg>
