<svg width="287" height="230" viewBox="0 0 287 230" fill="none" xmlns="http://www.w3.org/2000/svg">
<g opacity="0.7" clip-path="url(#clip0_775_4422)" filter="url(#filter0_d_775_4422)">
<path d="M134.854 34.4895C134.806 35.3391 137.253 36.9118 138.227 36.6186C139.248 36.3115 138.53 35.1029 136.879 34.3226C135.001 33.463 134.941 33.4319 134.854 34.4895Z" fill="#F1F1F1"/>
<path d="M143.255 32.3061C142.494 33.8123 142.682 35.2785 143.61 34.9993C144.585 34.7062 145.757 32.0446 145.249 31.3626C144.533 30.4972 144.05 30.7409 143.255 32.3061Z" fill="#F1F1F1"/>
<path d="M137.835 42.0419C137.205 43.3121 137.519 44.6913 138.354 44.4401C139.096 44.2167 140.43 41.7525 140.213 41.0318C139.969 40.2209 138.399 40.8897 137.835 42.0419Z" fill="#F1F1F1"/>
<path d="M144.403 39.8206C144.619 40.5413 147.124 41.8019 147.866 41.5785C148.702 41.3273 148.218 40.3921 146.891 39.5141C145.591 38.7261 144.118 38.8747 144.403 39.8206Z" fill="#F1F1F1"/>
<path d="M137.978 47.0585C113.298 56.6933 98.026 62.6138 94.4608 63.8828C90.0739 65.4481 88.4017 66.7862 88.499 68.6235C88.5614 70.1766 107.325 118.419 108.274 119.558C109.826 121.35 111.147 122.378 112.071 122.591C112.709 122.693 119.376 120.295 132.706 115.155C143.539 110.963 153.179 107.179 154.173 106.782C155.153 106.339 158.625 105.098 161.86 104.076C165.141 103.04 167.858 101.977 167.896 101.769C167.981 101.547 168.53 101.185 169.133 101.004C169.737 100.822 170.431 100.27 170.647 99.8117C170.85 99.3086 171.329 98.3785 171.691 97.7294C172.183 96.8444 172.152 96.0678 171.504 94.2489C170.476 91.1687 155.605 53.0046 153.563 48.0681C151.852 44.0635 150.837 43.0427 148.693 43.1474C148.155 43.2109 143.318 44.9608 137.978 47.0585ZM150.191 47.1178C150.903 48.4754 150.889 49.6092 150.106 49.6974C147.956 49.9513 147.805 49.1125 153.843 69.3518C158.16 83.8704 159.695 88.4681 160.308 88.8241C160.995 89.2561 160.915 89.3291 159.811 89.0226C159.146 88.8298 158.626 88.446 158.637 88.1478C158.66 87.5514 148.846 62.1605 147.501 59.3722C147.104 58.5582 146.025 55.641 145.045 52.8901L143.342 47.9009L144.773 47.274C145.581 46.9326 146.946 46.4238 147.841 46.2036C149.247 45.8299 149.533 45.9402 150.191 47.1178ZM140.862 49.5803C141.057 50.0619 141.334 50.8137 141.456 51.2191C141.638 51.6556 142.019 52.0813 142.305 52.1917C142.638 52.2881 142.506 52.5241 142.089 52.6497C141.624 52.7893 141.199 52.7208 141.118 52.4505C141.036 52.1803 134.871 53.8878 124.304 57.1155C115.13 59.9245 107.433 62.0926 107.207 62.0133C107.013 61.875 107.53 61.5724 108.398 61.2621C109.79 60.8433 139.313 49.3095 140.186 48.8501C140.372 48.7943 140.666 49.0988 140.862 49.5803ZM104.397 66.2972C104.772 68.0508 104.941 69.621 104.75 69.8259C104.526 70.0899 104.667 70.3912 105.193 70.626C105.792 70.9368 106.847 74.1071 110.684 87.1982L115.443 103.352L116.628 102.75C117.562 102.322 117.714 102.325 117.312 102.839C116 104.364 115.248 104.05 114.156 101.431C111.631 95.5589 102.058 70.6356 101.151 67.6175L100.148 64.2842L101.911 63.7537L103.674 63.2233L104.397 66.2972ZM100.126 86.2481C103.508 97.6585 105.531 105.057 105.055 104.316C104.639 103.606 102.079 97.4498 99.4412 90.5313C96.7569 83.6267 93.7494 75.9842 92.745 73.4864C91.7542 71.0337 90.9703 68.7643 91.0417 68.4972C91.0996 68.185 91.9271 67.7396 92.8087 67.4744L94.3864 66.9998L100.126 86.2481ZM142.952 57.2038C143.529 56.9322 143.883 57.2678 144.502 58.6534C145.013 59.6787 145.27 60.5345 145.085 60.5904C144.62 60.73 144.879 65.1222 145.353 65.52C145.68 65.7655 145.554 65.8525 145.115 65.7389C144.616 65.5943 144.605 65.8925 145.236 66.9799C145.746 68.0051 145.781 68.2894 145.321 67.9366C144.847 67.5388 144.729 67.8199 144.877 69.151C144.976 70.1528 145.268 71.2928 145.556 71.7465C145.845 72.2001 145.8 72.5573 145.508 72.596C144.924 72.6734 144.796 76.7891 145.343 77.263C145.55 77.4463 145.465 77.6684 145.141 77.7661C144.816 77.8638 144.858 78.3422 145.155 78.99C145.497 79.6238 145.499 79.967 145.166 79.8706C144.834 79.7741 144.909 80.1935 145.339 80.9485C145.768 81.7035 145.803 81.9877 145.463 81.6971C145.003 81.3444 144.912 81.7155 145.059 83.0466C145.158 84.0484 145.194 85.5114 145.145 86.361L145.088 87.8519L140.606 89.1019C137.576 89.9642 135.977 90.1996 135.623 89.864C134.809 89.1757 135.609 88.6402 139.565 87.1554C141.566 86.4061 143.229 85.7094 143.281 85.5464C143.347 85.4284 142.906 79.4208 142.279 72.2903C141.169 59.8526 141.036 55.3734 141.848 56.8974C142.049 57.2298 142.548 57.3744 142.952 57.2038ZM129.007 61.6447C129.826 61.0051 131.353 63.0512 132.1 65.8719C133.145 69.6836 132.608 69.7471 129.95 66.1257C127.325 62.4454 126.686 61.1638 127.765 61.7234C128.125 61.9099 128.722 61.8775 129.007 61.6447ZM117.518 66.1813C118.801 67.4165 120.571 74.6454 119.478 74.0408C118.892 73.775 114.628 67.0017 114.664 66.4504C114.732 65.4968 116.65 65.3128 117.518 66.1813ZM139.603 72.3094L140.628 83.7903L138.514 84.6716L136.415 85.598L135.163 83.9605C134.494 83.0812 132.023 79.7472 129.746 76.5516C126.566 72.2032 125.543 70.9883 125.615 71.9C125.652 72.5274 126.067 76.4305 126.536 80.5138C126.959 84.6111 127.293 88.2439 127.156 88.629C127.065 89.0002 126.125 89.5775 125.012 89.9126L123.076 90.5439L121.128 87.937C115.297 80.1614 108.85 71.3434 108.741 70.9831C108.66 70.7128 109.594 70.2845 110.827 70.0117L113.049 69.4907L118.067 76.9212C120.874 81.038 123.238 84.3549 123.378 84.313C123.517 84.2711 123.224 80.7734 122.76 76.541C121.525 65.3691 121.48 65.7263 123.661 65.0702C125.703 64.456 125.188 63.9231 132.3 73.7695C136.887 80.1018 136.78 80.0846 135.933 73.9045C135.683 72.064 135.289 68.4001 135.041 65.724L134.633 60.8362L136.309 60.1846C137.489 59.7316 138.04 59.7131 138.235 60.1947C138.437 60.5271 139.02 66.0005 139.603 72.3094ZM112.1 77.4391C112.069 77.8413 111.816 77.6719 111.454 77.1422C111.038 76.4323 111.031 76.2381 111.51 76.4868C111.81 76.6422 112.098 77.0959 112.1 77.4391ZM131.337 84.866C131.49 86.0479 131.63 87.1849 131.664 87.4691C131.732 87.6943 131.698 88.5889 131.576 89.3623C131.468 90.1807 131.466 91.0163 131.534 91.2415C131.602 91.4667 131.471 91.7028 131.206 91.8316C130.338 92.1418 124.709 93.7859 123.443 94.1177C120.943 94.7224 123.51 93.1641 126.526 92.2568C128.044 91.7511 129.475 91.1242 129.699 90.8603C129.97 90.5824 129.971 88.568 129.752 86.3252C129.274 80.869 129.318 80.5118 130.295 81.7407C130.717 82.3016 131.184 83.684 131.337 84.866ZM118.019 87.6935C118.266 88.012 118.274 88.2061 117.955 88.1547C117.636 88.1033 117.356 87.8439 117.274 87.5736C117.085 86.9429 117.45 86.9804 118.019 87.6935ZM165.246 86.0615C165.215 86.4638 165.035 86.3705 164.886 85.875C164.69 85.3935 164.748 85.0813 164.942 85.2196C165.122 85.3129 165.29 85.7043 165.246 86.0615ZM151.321 91.9204C151.223 92.0974 150.819 92.2681 150.453 92.2307C150.042 92.2072 150.14 92.0302 150.65 91.8767C151.147 91.6781 151.466 91.7294 151.321 91.9204ZM144.325 94.5656C144.027 94.7534 143.47 94.921 143.164 94.9146C142.799 94.8772 143.004 94.7173 143.654 94.5219C144.303 94.3265 144.562 94.3467 144.325 94.5656ZM162.16 94.3088C165.021 96.2482 167.489 98.0601 167.57 98.3304C167.665 98.6457 166.971 99.1983 165.977 99.5955C164.705 100.076 164.26 100.112 164.278 99.6647C164.322 99.3075 164.101 99.0791 163.823 99.1629C163.545 99.2466 163.245 99.0912 163.177 98.866C163.001 98.2804 160.432 96.3023 159.2 95.7396C158.555 95.4427 158.481 95.3665 159.073 95.4832C159.558 95.5828 159.417 95.2815 158.583 94.6972L157.349 93.7912L139.651 99.2137C129.919 102.19 122.05 104.459 122.182 104.223C122.425 103.855 154.015 91.454 155.958 91.0168C156.515 90.8493 158.867 92.1067 162.16 94.3088ZM168.154 92.7022C168.936 94.6283 169.443 96.1459 169.31 96.0387C168.517 95.5895 166.751 93.4192 167.236 93.5187C167.629 93.6463 167.477 92.8075 166.769 90.9575C166.216 89.4539 165.964 88.4489 166.244 88.7084C166.478 88.9818 167.372 90.776 168.154 92.7022ZM111.901 111.933C111.164 115.201 110.49 118.007 110.391 118.184C110.293 118.361 110.095 117.536 109.942 116.354C109.789 115.172 109.636 113.99 109.541 113.675C109.492 113.346 109.624 113.11 109.823 113.099C110.467 113.053 111.68 109.347 111.192 108.904C110.972 108.676 110.991 108.572 111.245 108.741C111.937 109.024 112.717 106.235 112.168 105.418C111.806 104.888 111.912 104.906 112.506 105.366C113.127 105.916 113.021 107.077 111.901 111.933ZM146.862 108.048C146.564 108.235 146.008 108.403 145.702 108.397C145.337 108.359 145.542 108.199 146.191 108.004C146.841 107.808 147.1 107.829 146.862 108.048ZM154.459 105.713C154.36 105.89 153.956 106.061 153.591 106.023C153.179 106 153.277 105.823 153.788 105.669C154.285 105.471 154.604 105.522 154.459 105.713ZM121.484 116.37C121.353 116.606 119.299 117.518 116.941 118.424C113.31 119.811 112.693 119.948 113.008 119.313C113.244 118.75 114.535 118.165 117.551 117.258C119.825 116.574 121.629 116.179 121.484 116.37ZM136.961 111.468C136.863 111.645 136.458 111.816 136.093 111.778C135.681 111.755 135.78 111.578 136.29 111.424C136.787 111.226 137.106 111.277 136.961 111.468Z" fill="#F1F1F1"/>
<path d="M155.989 46.2085C155.019 48.3669 157.963 50.9198 159.08 48.9137C159.54 48.0876 159.451 47.6232 158.774 46.5497C157.776 45.0817 156.559 44.9072 155.989 46.2085Z" fill="#F1F1F1"/>
<path d="M158.505 52.7217C157.585 54.3738 159.673 56.9388 161.262 56.166C161.824 55.8494 162 55.2562 161.781 54.1922C161.336 51.8701 159.458 51.0105 158.505 52.7217Z" fill="#F1F1F1"/>
<path d="M161.108 59.3559C161.077 59.7581 161.329 60.7631 161.679 61.591C162.152 62.8244 162.451 62.9798 163.426 62.6867C164.493 62.3656 164.532 62.1575 163.976 60.3106C163.448 58.5539 163.227 58.3255 162.258 58.4695C161.628 58.5609 161.185 58.9397 161.108 59.3559Z" fill="#F1F1F1"/>
<path d="M163.527 65.2104C163.382 65.4014 163.514 66.3442 163.799 67.2901C164.192 68.5964 164.559 68.9771 165.323 68.9929C166.837 68.9795 167.152 68.3445 166.569 66.4075C166.231 65.2814 165.795 64.6755 165.231 64.6489C164.194 64.5677 163.777 64.6933 163.527 65.2104Z" fill="#F1F1F1"/>
<path d="M166.302 71.7441C165.641 72.2377 166.394 74.9093 167.354 75.4067C169.152 76.3393 170.163 74.316 168.896 72.2902C168.191 71.1267 167.267 70.9135 166.302 71.7441Z" fill="#F1F1F1"/>
<path d="M168.82 78.6002C168.262 79.6033 168.978 81.6475 170.076 82.103C172.034 82.8896 172.88 79.9826 171.17 78.3356C170.288 77.422 169.412 77.5381 168.82 78.6002Z" fill="#F1F1F1"/>
<path d="M79.9444 119.582C79.3202 120.703 79.682 121.233 81.8132 122.262C85.6831 124.192 86.9915 121.981 83.1873 119.933C80.6557 118.582 80.5029 118.579 79.9444 119.582Z" fill="#F1F1F1"/>
<path d="M92.2223 117.166C91.2425 118.787 90.9624 119.706 91.2971 120.146C92.127 121.222 93.4242 120.488 94.5605 118.378C95.7296 116.209 95.7062 115.626 94.4414 115.123C93.809 114.871 93.3663 115.249 92.2223 117.166Z" fill="#F1F1F1"/>
<path d="M222.917 86.3473C214.443 89.6333 202.258 94.3794 195.818 96.8571C189.345 99.3938 183.781 101.755 183.338 102.134C181.893 103.552 182.032 104.688 184.473 110.782C185.767 114.077 189.563 125.854 193.276 138.196L199.78 159.818L200.451 157.504C200.835 156.259 201.227 155.208 201.366 155.166C201.552 155.11 203.074 156.469 204.659 158.203C204.806 158.356 204.541 158.484 204.069 158.43C203.351 158.4 203.286 158.518 203.707 159.079C204.089 159.505 204.05 159.713 203.611 159.599C203.172 159.486 203.166 159.635 203.501 160.074C203.822 160.469 203.811 160.767 203.459 160.775C203.167 160.813 202.942 161.077 202.898 161.435C202.867 161.837 204.685 161.487 209.65 159.993C213.873 158.723 216.245 157.862 216.024 157.633C215.757 157.419 216.129 157.307 216.952 157.354C218.859 157.468 258.209 145.631 258.019 145C257.775 144.189 255.721 142.744 255.385 143.14C255.081 143.477 254.505 142.57 254.392 141.523C254.338 141.343 254.112 141.263 253.833 141.347C253.601 141.417 253.454 141.265 253.512 140.953C253.584 140.685 254.722 140.097 255.975 139.72C257.274 139.33 258.257 139.231 258.185 139.498C258.1 139.72 258.462 140.249 259.015 140.574C259.909 141.19 259.895 141.145 259.423 139.911C258.877 138.602 258.924 138.588 261.534 137.508C263.912 136.498 264.354 136.119 265.253 134.228C265.817 133.076 266.174 131.74 266.052 131.335C264.995 127.821 246.105 80.5014 245.544 79.9825C243.687 78.1832 243.873 78.1274 222.917 86.3473ZM244.474 83.1535C244.691 83.8742 248.751 94.3437 253.526 106.514C258.286 118.64 262.374 129.199 262.591 129.92C262.984 131.226 262.804 131.133 259.197 128.73C257.096 127.299 255.301 125.874 255.193 125.514C255.085 125.154 254.763 124.759 254.444 124.708C254.172 124.642 253.831 124.352 253.764 124.126C253.682 123.856 253.841 123.71 254.173 123.807C254.825 123.954 245.494 92.7691 244.68 92.0808C244.34 91.7902 243.33 91.7991 242.402 92.0783C240.824 92.5529 240.751 92.4768 239.99 90.7898C239.54 89.7956 238.744 87.8244 238.251 86.3519L237.298 83.6911L239.783 82.6981C242.89 81.4196 243.986 81.5318 244.474 83.1535ZM236.293 88.7584C239.232 96.1756 242.235 105.146 245.189 114.966L248.056 124.665L246.611 125.246L245.167 125.828L241.557 113.995C239.592 107.464 237.391 100.315 236.681 98.1222L235.368 94.096L229.276 95.8797C225.921 96.8397 222.035 97.7141 220.594 97.8036C218.51 97.9394 216.329 98.5955 210.14 100.899C205.86 102.482 200.85 104.333 199.054 104.922L195.707 106.076L195.07 103.959C194.718 102.788 194.2 101.569 193.952 101.25C193.604 100.765 194.153 100.404 196.577 99.3796C201.718 97.2928 230.758 86.0025 232.786 85.3433L234.675 84.7259L236.293 88.7584ZM193.213 106.532C194.277 109.061 197.572 119.171 200.54 129.036L205.979 146.95L205.387 150.027C205.078 151.691 204.636 153.249 204.411 153.513C203.963 154.041 203.063 151.217 202.915 148.707C202.849 147.646 202.605 146.835 202.245 146.649C201.886 146.462 201.75 146.012 201.866 145.388C201.982 144.763 199.877 137.095 196.604 126.045L191.121 107.652L189.926 107.717C189.282 107.763 188.294 108.011 187.718 108.283C186.692 108.739 186.605 108.618 185.9 106.276L185.155 103.798L187.871 102.735C189.362 102.14 190.754 101.721 190.98 101.8C191.16 101.893 192.195 103.989 193.213 106.532ZM195.066 106.466C195.272 106.649 195.247 106.902 195.015 106.972C194.737 107.056 194.437 106.9 194.369 106.675C194.288 106.405 194.327 106.197 194.42 106.169C194.559 106.127 194.845 106.237 195.066 106.466ZM213.374 107.442C213.948 108.006 216.139 114.617 218.58 123.069L219.32 125.695L217.789 126.156L216.211 126.63L213.513 119.681C212.069 115.891 210.424 111.768 209.892 110.504C209.064 108.591 209.002 108.217 209.704 107.859C211.419 106.999 212.739 106.847 213.374 107.442ZM231.749 101.914C231.718 102.317 231.539 102.223 231.389 101.728C231.194 101.246 231.252 100.934 231.445 101.073C231.625 101.166 231.794 101.557 231.749 101.914ZM210.57 119.485L214.704 130.031L216.374 129.529C220.133 128.398 228.499 124.751 229.807 123.719C230.581 123.094 231.729 121.864 232.388 121.027C233.033 120.145 233.627 119.426 233.72 119.398C234.23 119.245 234.533 122.101 234.073 122.927C233.744 123.517 233.549 124.215 233.644 124.53C233.739 124.845 233.038 126.382 232.137 127.931C231.091 129.67 230.614 130.943 230.941 131.188C231.282 131.479 231.142 131.521 230.51 131.269C229.605 130.952 228.016 131.725 228.623 132.23C228.77 132.382 228.366 132.553 227.722 132.599C227.045 132.704 226.562 132.948 226.616 133.128C226.684 133.353 223.444 134.525 219.407 135.739L212.121 137.931L207.741 123.873L203.42 109.847L204.951 109.386L206.483 108.926L210.57 119.485ZM228.822 104.465C229.07 104.783 229.078 104.978 228.759 104.926C228.44 104.875 228.159 104.615 228.078 104.345C227.888 103.714 228.254 103.752 228.822 104.465ZM222.152 107.356C223.951 108.288 225.47 111.319 225.359 113.809C225.317 115.688 223.645 118.205 223.036 117.356C222.802 117.083 222.422 117.001 222.171 117.174C221.86 117.317 221.767 117.345 221.972 117.185C222.5 116.584 221.89 115.736 220.446 115.139C219.287 114.653 218.866 114.092 218.391 112.515C218.066 111.434 217.466 109.944 217.097 109.221L216.398 107.908L218.533 107.266C220.203 106.763 221.027 106.81 222.152 107.356ZM226.506 105.849C226.574 106.075 226.549 106.328 226.456 106.356C226.317 106.398 226.017 106.242 225.81 106.059C225.59 105.83 225.628 105.622 225.861 105.553C226.139 105.469 226.425 105.579 226.506 105.849ZM227.605 107.484C229.038 108.379 230.863 110.237 231.12 111.093C231.242 111.498 231.495 111.668 231.687 111.463C232.023 111.067 232.091 111.292 232.26 114.041C232.524 117.106 229.236 121.484 225.408 123.225C223.805 123.953 223.361 123.988 223.185 123.403C223.076 123.042 223.279 122.539 223.596 122.247C223.927 122.001 224.097 121.556 223.969 121.3C223.795 121.058 224.585 119.985 225.635 118.932C228.316 116.407 228.683 114.43 227.196 110.161C226.575 108.432 226.174 106.932 226.313 106.89C226.453 106.848 227.039 107.114 227.605 107.484ZM220.676 115.905C220.883 116.088 220.931 116.418 220.74 116.623C220.549 116.827 220.309 116.703 220.201 116.343C219.97 115.577 220.082 115.445 220.676 115.905ZM195.319 128.838C195.315 129.331 195.141 129.088 194.924 128.368C194.694 127.602 194.692 127.259 194.912 127.487C195.1 127.774 195.29 128.405 195.319 128.838ZM219.594 123.746C219.55 124.103 219.389 123.906 219.199 123.275C219.01 122.645 219.035 122.392 219.255 122.62C219.443 122.907 219.605 123.448 219.594 123.746ZM236.34 125.585C236.309 125.988 236.129 125.894 235.98 125.399C235.785 124.917 235.843 124.605 236.036 124.744C236.216 124.837 236.384 125.228 236.34 125.585ZM249.179 123.688C248.916 124.16 248.815 123.994 248.771 123.172C248.78 122.531 248.898 122.25 249.145 122.568C249.333 122.856 249.343 123.393 249.179 123.688ZM249.028 128.4C249.277 129.062 249.752 130.638 250.057 131.824C250.452 133.473 251.043 134.425 252.418 135.633C253.406 136.563 254.016 137.412 253.791 137.676C253.25 138.231 250.106 138.882 250.263 138.393C250.348 138.171 250.201 138.019 249.922 138.103C249.69 138.173 249.197 137.879 248.909 137.425C248.359 136.608 247.942 136.734 229.334 142.331C217.455 145.905 210.038 148.332 209.563 148.77C208.929 149.354 208.823 149.337 208.745 148.574C208.689 148.051 208.77 147.142 208.899 146.563C209.125 145.464 209.403 145.38 228.104 139.754L247.129 134.031L247.068 132.821C247.018 132.149 246.685 130.873 246.307 129.955C245.667 128.33 245.7 128.271 247.111 127.749C248.476 127.24 248.642 127.288 249.028 128.4ZM208.807 144.577C208.875 144.802 208.711 145.097 208.432 145.181C208.2 145.25 208.04 145.053 208.111 144.786C208.169 144.474 208.347 144.224 208.486 144.182C208.579 144.154 208.726 144.306 208.807 144.577ZM259.509 132.124L262.43 134.095L260.775 134.985C259.855 135.459 258.907 135.842 258.602 135.836C258.296 135.829 257.818 134.745 257.504 133.366C257.109 131.716 256.653 130.871 256.167 130.772C255.668 130.627 255.628 130.492 255.999 130.38C256.324 130.282 257.883 131.091 259.509 132.124ZM253.916 135.231C253.818 135.408 253.414 135.579 253.048 135.541C252.636 135.518 252.735 135.341 253.245 135.187C253.742 134.989 254.061 135.04 253.916 135.231ZM235.84 144.108C235.741 144.285 235.337 144.455 234.972 144.418C234.56 144.394 234.658 144.217 235.169 144.064C235.666 143.865 235.985 143.917 235.84 144.108ZM217.685 151.043C217.586 151.22 217.182 151.39 216.817 151.353C216.405 151.329 216.504 151.152 217.014 150.999C217.511 150.8 217.83 150.852 217.685 151.043ZM208.652 154.153C208.679 154.243 208.422 154.566 208.045 154.827C207.715 155.074 207.515 155.084 207.573 154.772C207.716 154.238 208.544 153.793 208.652 154.153ZM221.089 153.948C220.991 154.125 220.587 154.296 220.221 154.259C219.809 154.235 219.908 154.058 220.418 153.904C220.915 153.706 221.234 153.757 221.089 153.948Z" fill="#F1F1F1"/>
<path d="M248.902 78.53C248.798 78.8561 249.506 79.5273 250.585 80.0869C252.038 80.878 252.509 80.9325 252.838 80.3425C253.134 79.8114 252.965 79.42 251.892 78.7113C250.451 77.622 249.169 77.5656 248.902 78.53Z" fill="#F1F1F1"/>
<path d="M257.742 76.4603C256.967 77.9215 257.012 78.7431 257.844 78.9841C258.495 79.1319 260.119 76.2858 259.861 75.4299C259.563 74.4389 258.504 74.9541 257.742 76.4603Z" fill="#F1F1F1"/>
<path d="M84.5407 130.823C83.7194 132.299 83.4335 133.367 83.7547 133.762C84.571 134.793 85.9011 134 87.0702 131.831C87.9901 130.179 88.0266 129.627 87.4792 129.154C86.311 128.13 85.8412 128.418 84.5407 130.823Z" fill="#F1F1F1"/>
<path d="M93.7338 126.732C93.1096 127.853 93.5178 128.368 95.6026 129.411C99.0528 131.124 100.901 129.193 97.5762 127.393C95.2109 126.091 94.1937 125.906 93.7338 126.732Z" fill="#F1F1F1"/>
<path d="M160.358 110.521C155.157 112.577 142.741 117.393 132.763 121.229C114.045 128.481 112.986 128.996 112.933 131.174C112.929 131.666 114.065 135.106 115.495 138.852C116.912 142.552 120.45 153.473 123.35 163.113L128.622 180.635L129.222 178.932C129.914 176.857 130.397 176.613 130.831 178.055C131.021 178.685 131.504 179.621 131.986 180.213C132.408 180.773 132.59 181.21 132.317 181.145C132.044 181.079 131.774 181.357 131.756 181.804C131.645 183.115 131.892 183.434 132.82 183.154C133.331 183.001 134.05 183.374 134.665 184.073C135.294 184.817 136.133 185.252 136.93 185.209C137.62 185.149 146.692 181.831 157.028 177.837C167.41 173.83 178.674 169.557 182.04 168.299C190.741 165.092 195.344 163.069 195.353 162.427C195.351 162.084 195.711 161.092 196.097 160.189L196.864 158.534L186.897 133.14C181.428 119.165 176.729 107.414 176.454 107.005C175.804 106.022 173.219 105.67 171.376 106.273C170.555 106.569 165.619 108.496 160.358 110.521ZM174.609 109.28C174.924 109.823 178.754 119.527 183.192 130.915C187.629 142.302 191.784 153.087 192.526 154.878C193.315 156.998 193.581 158.048 193.221 157.862C192.861 157.675 190.968 156.427 188.987 155.058L185.367 152.611L179.54 133.241C175.962 121.349 173.554 114.018 173.363 114.223C173.125 114.441 173.038 114.32 173.069 113.918C173.117 113.068 172.22 112.945 170.623 113.524C169.304 114.019 168.631 113.632 168.157 112.055C167.669 110.434 167.86 110.229 171.155 109.238C173.846 108.428 174.152 108.434 174.609 109.28ZM166.195 113.775C166.588 115.082 167.511 117.309 168.144 118.74C168.823 120.157 171.38 127.984 173.893 136.168C177.24 147.294 178.563 151.022 179.062 151.167C179.441 151.249 178.707 151.667 177.407 152.058L175.087 152.756L169.504 134.197L163.908 115.593L146.99 120.584C137.696 123.331 129.953 125.513 129.773 125.42C129.579 125.282 130.063 125.038 130.791 124.77C131.534 124.546 138.875 121.699 147.057 118.452C155.299 115.236 162.779 112.347 163.74 112.009L165.444 111.447L166.195 113.775ZM122.939 130.963C123.512 132.363 126.446 141.108 129.391 150.39C134.607 166.554 134.884 167.306 135.719 167.055C136.74 166.748 137.502 167.599 137.551 169.107C137.582 169.884 137.306 170.311 136.563 170.534C135.854 170.698 135.268 171.611 134.53 173.7C133.76 175.848 133.417 176.393 133.023 175.922C132.22 174.935 131.316 171.425 131.731 170.956C131.956 170.692 129.919 163.249 125.943 150.2C122.522 138.997 119.731 129.718 119.709 129.479C119.655 129.299 120.171 128.996 120.775 128.814C121.749 128.521 121.956 128.705 122.939 130.963ZM140.307 130.16C139.038 133.341 138.937 134.354 139.696 136.876C140.591 139.849 142.322 141.736 145.023 142.642L147.153 143.328L144.914 144.296C142.317 145.421 141.42 145.298 139.252 143.642C138.124 142.753 137.507 141.71 136.682 139.306C136.061 137.577 135.761 136.243 135.974 136.277C136.14 136.325 136.368 135.569 136.435 134.615C136.503 133.662 137.158 132.138 137.896 131.229C138.621 130.274 138.916 129.743 138.539 130.004C138.13 130.323 137.638 130.373 137.432 130.189C137.225 130.006 137.661 129.776 138.431 129.643C139.154 129.524 140.042 129.11 140.345 128.773C141.209 127.776 141.217 127.97 140.307 130.16ZM152.898 126.765C154.613 127.084 157.969 129.66 157.754 130.462C157.403 131.648 154.827 131.833 153.214 130.845C151.947 129.998 151.323 129.94 149.652 130.443C146.172 131.49 144.831 134.939 147.475 136.157C148.015 136.437 150.093 136.45 152.025 136.311C153.989 136.113 156.507 136.24 157.671 136.578C158.835 136.915 159.555 137.288 159.323 137.358C159.044 137.442 159.371 137.687 159.944 137.908C160.563 138.115 160.936 138.346 160.75 138.402C160.565 138.458 160.88 139.002 161.528 139.642C162.691 140.815 163.329 143.275 162.922 145.117C162.399 147.583 157.403 150.658 153.295 150.961C150.52 151.157 148.451 150.502 146.741 148.855C145.031 147.208 145.036 147.059 146.893 146.501C147.774 146.236 148.571 146.192 148.652 146.463C148.828 147.048 152.736 147.592 154.687 147.349C158.224 146.825 160.139 143.94 158.557 141.371C157.852 140.207 155.752 139.955 150.781 140.419C144.596 141.052 141.099 138.174 142.052 133.27C142.728 129.628 148.69 126.066 152.898 126.765ZM128.959 137.012C128.955 137.504 128.781 137.262 128.564 136.541C128.334 135.775 128.332 135.432 128.552 135.661C128.74 135.948 128.93 136.579 128.959 137.012ZM151.625 132.797C152.064 132.91 152.298 133.184 152.2 133.361C151.871 133.951 148.93 134.099 149.106 133.505C149.268 132.867 150.581 132.521 151.625 132.797ZM140.204 146.302C141.411 145.939 141.664 146.109 142.858 148.058C146.137 153.409 150.622 154.86 157.249 152.669C160.517 151.588 161.832 151.585 159.939 152.695C159.33 153.026 158.855 153.463 158.909 153.644C158.963 153.824 158.447 154.127 157.764 154.381C153.954 155.675 151.713 156.3 150.433 156.586C147.076 157.203 142.243 155.268 140.361 152.543C139.798 151.681 139.101 150.711 138.854 150.393C137.529 148.679 137.102 146.253 138.193 146.514C138.572 146.597 139.462 146.526 140.204 146.302ZM154.759 142.71C155.862 142.673 156.68 142.869 156.635 143.226C156.614 144.166 153.565 145.132 152.44 144.587C150.388 143.485 151.24 142.786 154.759 142.71ZM152.403 146.317C152.61 146.5 152.632 146.739 152.353 146.823C152.121 146.893 151.682 146.779 151.475 146.596C151.255 146.367 151.247 146.173 151.525 146.09C151.758 146.02 152.183 146.088 152.403 146.317ZM148.118 162.686C147.821 162.874 147.264 163.041 146.958 163.035C146.593 162.998 146.798 162.838 147.447 162.642C148.097 162.447 148.356 162.467 148.118 162.686ZM179.448 154.637C179.835 154.913 180.123 155.367 180.052 155.634C179.843 156.286 183.779 159.277 184.342 158.961C184.5 158.815 184.642 159.116 184.624 159.564C184.588 160.115 184.675 160.236 184.978 159.899C185.282 159.562 185.415 159.669 185.365 160.176C185.348 160.623 185.489 160.924 185.768 160.841C186 160.771 186.446 161.079 186.735 161.532C187.023 161.986 187.47 162.294 187.702 162.224C188.119 162.098 187.781 160.972 186.564 158.44C185.757 156.767 187.199 157.021 190.06 158.96L193.007 161.021L191.544 161.707C190.796 162.079 188.841 162.814 187.263 163.289L184.446 164.186L181.777 162.041C180.355 160.848 179.056 160.06 178.891 160.355C178.714 160.605 178.673 160.47 178.764 160.099C178.887 159.668 178.526 159.139 177.853 158.752C176.806 158.133 176.189 158.27 160.857 162.98C152.101 165.663 144.802 167.81 144.668 167.703C144.502 167.655 151.445 164.829 160.151 161.473C168.811 158.131 176.291 155.243 176.774 154.999C177.258 154.755 177.88 154.47 178.145 154.341C178.423 154.257 179.015 154.374 179.448 154.637ZM170.51 169.164C170.412 169.341 170.008 169.511 169.642 169.474C169.23 169.451 169.329 169.274 169.839 169.12C170.336 168.921 170.655 168.973 170.51 169.164ZM143.978 180.043C143.656 180.484 137.273 182.65 137.179 182.335C137.111 182.109 137.507 181.745 138.083 181.473C139.156 181.003 144.189 179.734 143.978 180.043Z" fill="#F1F1F1"/>
<path d="M252.289 86.2551C251.415 87.8933 251.681 88.9433 252.841 88.5943C253.769 88.3151 254.961 85.5495 254.419 84.9265C253.75 84.0472 253.28 84.3359 252.289 86.2551Z" fill="#F1F1F1"/>
<path d="M258.822 83.7494C259.093 84.6503 261.472 85.9978 262.353 85.7326C263.374 85.4255 262.395 83.8534 260.904 83.2704C259.021 82.5598 258.51 82.7134 258.822 83.7494Z" fill="#F1F1F1"/>
<path d="M100.603 133.753C100.485 134.034 89.3693 137.623 75.9996 141.793L51.613 149.374L52.0467 150.816C52.4803 152.257 52.4474 152.316 50.5449 152.889C48.6888 153.447 48.6289 153.416 48.4621 152.189C48.3981 151.471 48.0556 150.837 47.6302 150.769C46.526 150.463 43.1328 151.631 42.7986 152.37C42.4914 153.199 43.1422 156.54 44.4218 160.625C44.956 162.233 48.0107 172.219 51.2686 182.881C57.1476 202.087 57.1883 202.222 57.7312 200.831C58.0519 200.047 58.2798 199.29 58.212 199.065C58.1578 198.885 58.3028 198.694 58.5348 198.624C58.7668 198.555 59.2756 199.237 59.653 200.155C60.0632 201.014 60.634 202.07 60.9551 202.465C61.3961 202.921 61.3711 203.174 60.7678 203.356C60.3502 203.482 60.1724 203.732 60.3794 203.915C60.6327 204.084 60.542 204.455 60.2907 204.629C59.9736 204.921 60.0472 204.997 60.5112 204.858C61.128 204.721 61.5497 205.282 62.3837 207.045C63.5216 209.65 65.746 211.83 67.4206 212.014C68.7297 212.161 123.696 191.008 125.382 189.715C125.997 189.235 126.432 188.662 126.35 188.392C126.269 188.122 126.497 187.365 126.845 186.671L127.475 185.401L119.834 165.889C115.646 155.164 111.162 143.79 109.968 140.662C107.419 134.208 106.581 132.937 104.74 132.705C103.265 132.51 100.964 133.104 100.603 133.753ZM105.374 136.493C106.564 138.935 124.228 184.364 124.05 184.614C123.984 184.732 122.251 183.681 120.151 182.25C115.909 179.252 113.499 177.128 114.849 177.41C115.075 177.489 114.769 176.304 114.183 174.859C113.583 173.37 110.705 163.969 107.789 153.941L102.434 135.805L103.594 135.456C104.476 135.191 104.836 135.378 105.374 136.493ZM97.4323 142.222C98.2548 144.283 101.164 153.282 103.967 162.263L108.965 178.541L103.411 180.261C100.361 181.228 91.4657 183.953 83.6371 186.357L69.3586 190.702L68.7008 189.524C68.3448 188.845 68.1415 188.17 68.2401 187.993C68.3386 187.816 76.2 185.352 85.759 182.477C95.2851 179.66 103.471 177.099 103.987 176.797L104.927 176.219L99.5338 158.291C95.7995 145.71 93.9607 140.27 93.5682 140.143C92.7038 139.96 93.6934 138.877 94.9405 138.649C95.8164 138.533 96.1047 138.986 97.4323 142.222ZM46.328 154.01C46.0303 154.198 45.4735 154.365 45.1679 154.359C44.8025 154.321 45.0074 154.161 45.657 153.966C46.3067 153.771 46.5658 153.791 46.328 154.01ZM78.9176 147.792C79.2173 147.947 79.7668 148.764 80.1306 149.637C80.7905 151.158 80.7441 151.172 78.9808 151.703C77.9599 152.01 76.2836 152.661 75.1642 153.145L73.2038 154.03L73.5811 166.049C73.9424 176.502 73.8339 181.692 73.2804 180.189C73.1991 179.918 72.0312 180.073 70.6063 180.551C69.1678 180.984 67.8878 181.271 67.7408 181.118C67.5938 180.966 67.4542 179.829 67.4731 178.546C67.4784 177.218 67.3117 175.991 67.0448 175.777C66.8378 175.594 66.9035 175.476 67.1762 175.541C67.5088 175.637 67.7425 174.732 67.7343 173.359C67.7068 172.09 67.8279 170.138 67.9803 168.962C68.1327 167.787 68.1844 166.445 68.1417 165.967C68.099 165.488 68.1257 164.399 68.2009 163.64C68.3089 162.822 68.297 161.941 68.2021 161.626C68.1208 161.355 68.1709 160.849 68.3352 160.554C68.7487 159.742 68.7487 154.191 68.325 153.287C68.143 152.851 68.2609 152.57 68.5336 152.635C68.8526 152.686 68.9705 152.405 68.835 151.955C68.6859 151.459 68.7089 150.863 68.8596 150.523C69.2674 149.86 78.1517 147.433 78.9176 147.792ZM53.2884 157.467C53.6543 158.683 54.1051 159.677 54.3372 159.607C54.5228 159.551 56.594 166.1 58.9596 174.132C61.97 184.475 63.3908 188.862 63.8297 188.975C64.1488 189.027 64.5258 188.766 64.6629 188.381C64.8387 187.788 64.9315 187.76 65.067 188.21C65.1619 188.526 65.4017 188.65 65.5466 188.459C65.7052 188.313 65.9741 188.871 66.1388 189.755C66.379 191.058 66.2283 191.398 65.3002 191.677C63.8617 192.11 62.1173 196.908 63.295 197.291C63.9138 197.497 63.881 197.556 63.21 197.513C62.6589 197.531 62.3747 197.764 62.4696 198.079C62.578 198.44 62.3653 198.405 61.9649 198.084C61.0907 197.364 59.9117 193.445 60.4066 192.903C60.6308 192.64 58.8109 185.917 55.3012 174.25L49.8267 156.052L51.2188 155.633C52.5644 155.228 52.6244 155.259 53.2884 157.467ZM86.3333 159.659C93.7535 167.841 97.1117 171.939 96.7832 172.529C96.6653 172.81 95.8108 173.165 94.9484 173.327C93.5157 173.61 93.1096 173.438 91.1985 171.458L89.0533 169.205L86.364 170.358C84.39 171.198 83.5412 171.404 83.1737 171.023C82.5064 170.487 79.2697 171.166 78.3786 172.073C78.0287 172.424 77.7351 173.298 77.7063 174.043C77.7749 176.626 77.4817 178.679 77.1104 178.791C76.6928 178.917 76.52 176.66 76.2088 165.701L75.9173 155.817L77.8777 154.933C78.9508 154.462 80.0566 153.933 80.335 153.85C80.5999 153.721 83.3118 156.343 86.3333 159.659ZM89.2442 173.372C89.9755 174.626 89.769 175.622 88.891 175.394C88.1794 175.216 87.8739 175.209 86.7331 175.454C86.3619 175.566 86.0949 175.351 86.1664 175.084C86.2243 174.772 86.1237 174.606 85.8453 174.69C85.5669 174.773 85.3792 174.486 85.41 174.084C85.4737 173.623 86.0884 173.143 87.0629 172.85C88.3157 172.473 88.7547 172.586 89.2442 173.372ZM77.8919 179.538C78.0989 179.722 78.0738 179.975 77.8418 180.045C77.5634 180.128 77.2636 179.973 77.1959 179.748C77.1145 179.477 77.1531 179.269 77.246 179.241C77.3852 179.2 77.6714 179.31 77.8919 179.538ZM84.1797 178.236C84.1489 178.638 83.969 178.545 83.82 178.05C83.6245 177.568 83.6824 177.256 83.8758 177.394C84.0557 177.488 84.224 177.879 84.1797 178.236ZM103.344 172.471C103.425 172.741 103.133 172.78 102.621 172.59C102.155 172.387 101.735 172.169 101.708 172.079C101.681 171.989 102.019 171.936 102.431 171.96C102.857 172.028 103.276 172.246 103.344 172.471ZM73.6425 181.897C73.6117 182.3 73.4319 182.206 73.2828 181.711C73.0874 181.229 73.1453 180.917 73.3387 181.055C73.5185 181.149 73.6869 181.54 73.6425 181.897ZM59.2782 189.657C59.2338 190.014 59.0732 189.817 58.8835 189.186C58.6938 188.556 58.7189 188.303 58.9394 188.531C59.127 188.818 59.2897 189.359 59.2782 189.657ZM112.886 181.144C113.567 181.725 114.387 182.265 114.766 182.347C115.145 182.43 115.559 182.796 115.667 183.157C115.775 183.517 116.129 183.853 116.508 183.935C116.901 184.063 116.92 183.959 116.553 183.578C115.265 182.492 117.783 183.797 120.703 185.768L123.697 187.815L122.234 188.5C121.439 188.887 109.97 193.319 96.732 198.432C83.5269 203.485 71.6076 208.102 70.3025 208.642L67.9245 209.652L68.6099 206.548C69.0115 204.855 69.4595 203.148 69.6895 202.735C69.9716 202.159 74.8497 200.544 92.8675 195.173C109.341 190.218 115.657 188.17 115.549 187.81C115.467 187.539 114.746 186.823 113.959 186.225C113.125 185.641 112.104 184.769 111.676 184.357C111.249 183.945 110.676 183.725 110.379 183.912C110.067 184.055 109.888 183.962 109.992 183.636C110.096 183.31 109.808 182.856 109.421 182.58C108.361 181.916 108.761 181.059 110.339 180.584C111.313 180.291 112.025 180.47 112.886 181.144ZM62.4339 200.988C62.2367 201.342 62.109 201.086 61.9908 200.188C61.9382 199.172 62.0039 199.054 62.3328 199.643C62.5612 200.066 62.631 200.634 62.4339 200.988ZM66.5592 203.431C66.544 204.222 66.2524 205.439 65.9317 206.223L65.3424 207.629L64.7597 205.692C64.2854 204.115 64.3298 203.758 65.0722 203.535C65.5826 203.381 66.0717 202.988 66.1432 202.721C66.4425 201.698 66.6573 202.075 66.5592 203.431Z" fill="#F1F1F1"/>
<path d="M79.8857 163.122C80.0471 165.676 80.247 168.023 80.3419 168.339C80.4638 168.744 81.3262 168.583 83.5786 167.66C85.2548 167.008 86.6391 166.395 86.7184 166.322C86.8633 166.131 80.1354 158.232 79.857 158.316C79.7178 158.358 79.7572 160.508 79.8857 163.122Z" fill="#F1F1F1"/>
<path d="M206.505 163.837C206.817 164.873 209.488 166.182 210.015 165.581C210.669 164.893 210.212 164.048 208.74 163.361C207.075 162.536 206.18 162.756 206.505 163.837Z" fill="#F1F1F1"/>
<path d="M214.939 161.595C214.276 162.924 214.677 164.424 215.605 164.145C216.394 163.908 217.447 161.184 217.011 160.578C216.296 159.713 215.812 159.957 214.939 161.595Z" fill="#F1F1F1"/>
<path d="M48.4977 211.517C48.4398 211.829 49.1613 212.546 50.2269 213.06C51.6794 213.851 52.1512 213.906 52.4797 213.316C52.7754 212.785 52.5142 212.421 51.1217 211.661C49.2361 210.607 48.7778 210.598 48.4977 211.517Z" fill="#F1F1F1"/>
<path d="M57.1541 209.847C56.4121 211.249 56.3948 211.696 56.9344 211.976C57.5339 212.287 57.8974 211.981 58.6723 210.52C59.2772 209.503 59.4837 208.507 59.2632 208.279C58.5224 207.667 58.1454 207.927 57.1541 209.847Z" fill="#F1F1F1"/>
<path d="M103.963 200.432C103.306 201.612 103.428 202.017 104.526 202.473C105.052 202.708 105.961 202.533 106.927 202.045C108.331 201.328 108.462 201.092 107.998 200.053C107.607 199.09 107.201 198.917 106.014 199.176C105.105 199.351 104.291 199.842 103.963 200.432Z" fill="#F1F1F1"/>
<path d="M97.8182 202.379C95.852 203.412 97.0478 205.705 99.2287 205.049C101.595 204.337 102.177 202.738 100.438 201.836C99.7186 201.463 99.5195 201.474 97.8182 202.379Z" fill="#F1F1F1"/>
<path d="M90.3728 205.552C90.2413 205.788 90.2919 206.46 90.468 207.046C90.7661 208.037 90.9324 208.085 92.7479 207.391C94.4242 206.74 94.6155 206.535 94.3174 205.544C94.0328 204.598 93.7466 204.488 92.3139 204.771C91.3587 204.96 90.5042 205.316 90.3728 205.552Z" fill="#F1F1F1"/>
<path d="M83.8283 208.356C83.1733 209.879 84.3859 210.546 86.4334 209.782C88.0633 209.145 88.2546 208.94 87.9565 207.949C87.6719 207.003 87.3857 206.892 85.9066 207.19C84.8586 207.407 84.0776 207.838 83.8283 208.356Z" fill="#F1F1F1"/>
<path d="M209.762 170.963C209.001 172.469 209.189 173.935 210.117 173.656C211.091 173.363 212.264 170.701 211.755 170.019C211.039 169.154 210.556 169.397 209.762 170.963Z" fill="#F1F1F1"/>
<path d="M216.21 168.679C216.162 169.529 218.608 171.101 219.583 170.808C220.557 170.515 219.805 169.022 218.333 168.335C216.681 167.555 216.297 167.621 216.21 168.679Z" fill="#F1F1F1"/>
<path d="M51.8978 219.287C51.1558 220.689 51.1385 221.137 51.6781 221.416C52.2776 221.727 52.6411 221.421 53.4159 219.96C54.0208 218.943 54.2274 217.948 54.0069 217.719C53.2661 217.107 52.8891 217.368 51.8978 219.287Z" fill="#F1F1F1"/>
<path d="M58.0903 216.491C58.0324 216.803 58.7539 217.52 59.8195 218.034C61.272 218.825 61.7438 218.88 62.0723 218.29C62.368 217.759 62.1068 217.395 60.7143 216.635C58.8287 215.581 58.3704 215.572 58.0903 216.491Z" fill="#F1F1F1"/>
<path d="M77.4654 210.417C76.7385 211.029 77.414 212.938 78.3441 213.002C78.756 213.025 79.7305 212.732 80.4651 212.315C81.5574 211.74 81.7217 211.445 81.2844 210.496C80.907 209.578 80.5144 209.451 79.3736 209.696C78.6176 209.874 77.7031 210.198 77.4654 210.417Z" fill="#F1F1F1"/>
<path d="M70.8396 212.951C70.277 213.267 70.2134 213.728 70.5636 214.556C70.9546 215.519 71.3607 215.692 72.5479 215.433C74.5046 215.041 75.4187 213.538 74.3896 212.472C73.6817 211.801 72.5138 211.956 70.8396 212.951Z" fill="#F1F1F1"/>
</g>
<defs>
<filter id="filter0_d_775_4422" x="-3.87685" y="0.943359" width="294.44" height="233.463" filterUnits="userSpaceOnUse" color-interpolation-filters="sRGB">
<feFlood flood-opacity="0" result="BackgroundImageFix"/>
<feColorMatrix in="SourceAlpha" type="matrix" values="0 0 0 0 0 0 0 0 0 0 0 0 0 0 0 0 0 0 127 0" result="hardAlpha"/>
<feOffset dy="4"/>
<feGaussianBlur stdDeviation="2"/>
<feComposite in2="hardAlpha" operator="out"/>
<feColorMatrix type="matrix" values="0 0 0 0 0 0 0 0 0 0 0 0 0 0 0 0 0 0 0.25 0"/>
<feBlend mode="normal" in2="BackgroundImageFix" result="effect1_dropShadow_775_4422"/>
<feBlend mode="normal" in="SourceGraphic" in2="effect1_dropShadow_775_4422" result="shape"/>
</filter>
<clipPath id="clip0_775_4422">
<rect width="251.007" height="159.934" fill="white" transform="translate(0.123154 73.252) rotate(-16.7427)"/>
</clipPath>
</defs>
</svg>
