<svg width="62" height="40" viewBox="0 0 62 40" fill="none" xmlns="http://www.w3.org/2000/svg">
<path d="M2.56683 39.0282C-0.54581 36.5798 -0.775216 33.1296 1.59427 24.3999C3.737 16.5055 5.49557 12.8834 7.98654 11.2337C9.65293 10.13 10.4401 9.95183 14.2785 9.80936C18.6045 9.6488 18.6628 9.63118 18.4553 8.54608C18.0911 6.64074 20.8786 2.26873 23.2608 1.00904C25.2923 -0.0652856 25.4507 -0.0750517 38.6617 0.0595554L52.01 0.195394L53.7982 1.6371C56.1927 3.56762 57.7626 6.88891 59.7495 14.2271C62.2309 23.392 61.9073 27.2176 58.4735 29.3113C56.4737 30.5307 53.9987 30.4722 52.0472 29.1595C49.9804 27.7693 45.4871 20.6496 45.6728 19.0591C45.767 18.2525 46.0939 17.8864 46.72 17.8864C47.359 17.8864 48.3299 19.027 49.9788 21.7145C52.7108 26.1675 53.2818 26.795 54.981 27.2114C56.8107 27.66 58.613 25.7565 58.611 23.3778C58.6091 20.9176 55.5785 9.68657 54.1631 6.89336C52.066 2.75479 51.9062 2.71598 37.5829 2.86208L25.1661 2.98856L23.9194 4.15246C23.2337 4.79256 22.1662 6.31142 21.5471 7.52766L20.4214 9.73909L27.7617 9.74182C31.7989 9.74325 35.8756 9.95958 36.8211 10.2219C39.4352 10.9479 42.0242 14.192 43.4306 18.5039C45.478 24.7811 46.9729 30.8624 46.9733 32.9155C46.974 37.1991 44.5497 40 40.8413 40C37.9473 40 35.9731 38.4646 33.4726 34.2692C32.2988 32.2996 30.9683 30.6402 30.4465 30.4951C28.5011 29.954 16.4438 30.208 15.7213 30.8052C15.3342 31.1252 14.2991 32.6116 13.421 34.1081C12.5429 35.6046 11.0382 37.5425 10.0772 38.4145C8.59326 39.7611 7.98906 39.9999 6.06642 39.9999C4.47581 39.9999 3.43532 39.7106 2.56683 39.0276V39.0282ZM8.754 35.4337C9.67455 34.4583 11.1656 32.311 12.0675 30.6618L13.7073 27.6633L23.008 27.5488C28.1234 27.4856 32.5361 27.5929 32.8141 27.7815C33.092 27.9728 34.174 29.6012 35.2185 31.4009C36.2629 33.2005 37.6877 35.2431 38.3846 35.94C40.4994 38.0548 42.8691 37.4198 43.7426 34.5044C44.2029 32.9682 44.0587 31.9336 42.5921 26.2485C40.7238 19.0068 39.0131 15.1415 37.046 13.7175C35.7988 12.8146 35.0862 12.7658 23.2178 12.7692L10.7047 12.773L9.05202 14.3748C7.16642 16.2024 6.24532 18.4318 4.19639 26.1269C2.41122 32.8315 2.35852 34.5342 3.88885 36.0645C5.49518 37.6708 6.80272 37.5013 8.75404 35.4338L8.754 35.4337ZM32.1131 23.9836C31.2604 22.9562 31.9273 21.3783 33.2142 21.3783C34.6778 21.3783 35.6678 22.6069 35.0275 23.6287C34.3797 24.6625 32.8329 24.8509 32.1131 23.9834V23.9836ZM12.3872 23.4153C12.2057 23.2338 12.0572 22.7127 12.0572 22.2571C12.0572 21.8019 11.481 21.1529 10.7769 20.8155C9.18833 20.0541 9.06232 18.4978 10.5603 18.1404C11.1453 18.0007 11.8848 17.3628 12.2035 16.7227C12.5223 16.0826 13.0849 15.5588 13.4538 15.5588C13.8228 15.5588 14.3854 16.0829 14.7042 16.7227C15.0229 17.3628 15.7623 18.0008 16.3473 18.1404C17.883 18.5066 17.8219 20.541 16.2641 20.9087C15.5466 21.0781 15.0166 21.6088 14.8484 22.3264C14.5865 23.4437 13.0814 24.1095 12.3872 23.4153H12.3872ZM28.9102 20.8196C27.5863 19.4957 28.8816 17.316 30.657 17.8795C31.3215 18.0907 31.6104 18.5808 31.6104 19.4976C31.6104 21.2003 30.0532 21.9627 28.9102 20.8196ZM35.6423 20.6882C34.7684 19.8143 35.1567 18.2387 36.3385 17.8636C38.0716 17.3135 39.3368 19.5179 38.035 20.8196C37.2866 21.5681 36.4778 21.5237 35.6423 20.6882V20.6882ZM32.3187 17.3646C31.4113 16.4572 31.5475 15.3794 32.6579 14.68C33.6072 14.0822 35.0141 14.7471 35.2417 15.9015C35.3844 16.6251 34.1925 18.1195 33.4726 18.1195C33.2532 18.1195 32.7339 17.7796 32.3187 17.3646H32.3187ZM46.9922 14.1846C45.7596 12.6994 47.5783 10.3648 49.0296 11.5693C49.9054 12.2962 49.9857 13.5245 49.2083 14.3019C48.4619 15.0483 47.6745 15.0066 46.9922 14.1848V14.1846ZM43.6755 10.7325C42.8134 10.0344 42.742 9.75607 43.2036 8.8936C44.2037 7.02483 46.9353 8.12551 46.296 10.1397C45.8809 11.4476 44.8474 11.6814 43.6755 10.7325ZM50.5697 11.0734C48.8561 10.1144 50.1779 7.5015 52.0724 8.10278C52.684 8.29688 53.0258 8.80559 53.0258 9.52157C53.0258 10.8785 51.7086 11.7107 50.5697 11.0734ZM27.048 8.24957C25.6851 6.88678 26.9311 3.68663 28.5784 4.31876C29.5686 4.69872 29.5422 8.14344 28.5459 8.52565C27.6083 8.88526 27.7005 8.9023 27.0477 8.24961L27.048 8.24957ZM46.6989 7.23715C46.1409 5.7832 46.7055 4.85104 48.1439 4.85104C49.3783 4.85104 49.5342 5.00778 49.5342 6.24773C49.5342 7.42598 49.3336 7.66743 48.2513 7.79192C47.4326 7.88594 46.8708 7.68524 46.6989 7.23715Z" fill="#C4B2F0"/>
</svg>
