<svg width="37" height="40" viewBox="0 0 37 40" fill="none" xmlns="http://www.w3.org/2000/svg">
<path d="M1.52759 39.2866C0.873758 38.6328 0.823535 38.2521 0.92832 34.7436L1.04271 30.9142L4.43216 26.4683C6.29635 24.0231 8.05936 21.8299 8.34998 21.5945C8.69987 21.311 10.1287 21.1664 12.5797 21.1664C14.6154 21.1664 16.281 21.0787 16.281 20.9715C16.281 20.2822 14.4482 13.7287 14.1574 13.3784C13.9609 13.1418 13.4276 12.9478 12.9723 12.9478C11.9687 12.9478 9.82119 11.8916 9.01736 11.0027C7.55161 9.3819 6.96221 6.21622 7.74194 4.15248C8.25975 2.78197 9.72143 1.3227 11.3157 0.584579C16.5383 -1.83342 22.1207 3.6917 19.8781 9.05902C19.5964 9.73315 18.7277 10.8681 17.9477 11.5811L16.5294 12.8775L17.24 15.5665C17.6308 17.0455 18.1202 18.9104 18.3275 19.7109L18.7044 21.1662H26.9321C31.9488 21.1662 35.4184 21.3045 35.8222 21.5205C36.4213 21.8412 36.4846 22.2726 36.4846 26.0396V30.2041L33.0105 34.7741C31.0997 37.2877 29.2607 39.4916 28.9238 39.672C28.5643 39.8645 22.9249 40 15.2762 40C2.5227 40 2.22581 39.9838 1.52759 39.2863V39.2866ZM27.4101 35.035V32.638H15.4249H3.43974L3.33902 35.125L3.23831 37.612L15.3242 37.5218L27.41 37.4321L27.4101 35.035ZM32.5284 31.8073C34.0486 29.7744 34.4299 29.0059 34.4299 27.9751C34.4299 27.266 34.2922 26.6006 34.1238 26.4966C33.9554 26.3927 32.8768 27.5536 31.7268 29.0766C30.0335 31.3192 29.6359 32.0894 29.6359 33.1265C29.6359 34.4693 29.9238 35.0559 30.3653 34.6126C30.5092 34.4682 31.4825 33.2058 32.5283 31.8073H32.5284ZM27.9601 29.908C28.65 29.5242 32.7178 24.3475 32.7178 23.8533C32.7178 23.683 29.816 23.5896 26.126 23.6417L19.5341 23.7347V25.2757C19.5341 26.5919 19.4266 26.832 18.7976 26.9216C18.1854 27.009 17.9639 26.7344 17.4859 25.2951L16.9108 23.5635H13.2H9.48916L7.23493 26.4505C4.9018 29.4384 4.68559 29.8824 5.40872 30.2017C6.1997 30.5507 27.2984 30.2761 27.9601 29.908V29.908ZM24.2332 29.1942C22.8421 28.2199 23.5494 26.5597 25.3555 26.5597C26.4101 26.5597 27.2388 27.21 27.2388 28.0376C27.2388 28.6573 26.0462 29.7273 25.3555 29.7273C25.1567 29.7273 24.6517 29.4874 24.2332 29.1942ZM16.1372 10.2477C18.5779 8.75939 18.8917 5.55969 16.8019 3.46986C15.8054 2.47342 15.4442 2.33263 13.884 2.33263C12.3238 2.33263 11.9625 2.47338 10.966 3.46986C9.46138 4.97453 9.13459 6.67574 10.0182 8.40436C11.1798 10.677 14.0267 11.5347 16.1372 10.2477Z" fill="#C4B2F0"/>
</svg>
