<svg width="39" height="40" viewBox="0 0 39 40" fill="none" xmlns="http://www.w3.org/2000/svg">
<path d="M27.8168 0.0574334C28.0965 0.150282 28.3278 0.350404 28.4599 0.613783C28.592 0.877163 28.6141 1.18223 28.5213 1.46189L27.4102 4.79525C27.3171 5.07521 27.1165 5.3067 26.8527 5.43881C26.5889 5.57092 26.2834 5.59282 26.0035 5.4997C25.7235 5.40658 25.492 5.20606 25.3599 4.94226C25.2278 4.67846 25.2059 4.37298 25.299 4.09302L26.4102 0.759662C26.4563 0.621142 26.5294 0.493085 26.6251 0.382811C26.7208 0.272536 26.8373 0.182208 26.968 0.11699C27.0986 0.0517722 27.2408 0.0129438 27.3865 0.00272462C27.5321 -0.00749457 27.6784 0.011096 27.8168 0.0574334ZM36.0325 4.11969C36.1356 4.01638 36.2174 3.89377 36.2732 3.75885C36.329 3.62392 36.3576 3.47934 36.3575 3.33334C36.3574 3.18735 36.3286 3.0428 36.2726 2.90796C36.2166 2.77312 36.1347 2.65062 36.0314 2.54746C35.9281 2.44429 35.8054 2.36249 35.6705 2.30672C35.5356 2.25094 35.391 2.22229 35.245 2.22239C35.099 2.22249 34.9545 2.25135 34.8196 2.30732C34.6848 2.36328 34.5623 2.44526 34.4591 2.54857L30.0146 6.99305C29.8122 7.20261 29.7002 7.48328 29.7028 7.77461C29.7053 8.06594 29.8222 8.34463 30.0282 8.55064C30.2342 8.75665 30.5129 8.8735 30.8042 8.87604C31.0955 8.87857 31.3762 8.76657 31.5858 8.56417L36.0302 4.11969H36.0325ZM13.2589 4.76858C13.5689 4.11576 14.0335 3.54838 14.6122 3.1156C15.191 2.68283 15.8666 2.39772 16.5804 2.28499C17.2943 2.17225 18.0249 2.23529 18.7088 2.46864C19.3928 2.70199 20.0096 3.09861 20.5057 3.62413L35.1436 19.1354C35.632 19.6529 35.9891 20.2802 36.1847 20.9644C36.3803 21.6486 36.4088 22.3699 36.2677 23.0674C36.1265 23.7649 35.82 24.4183 35.3738 24.9727C34.9276 25.5271 34.3548 25.9663 33.7036 26.2532L24.9546 30.111C25.2789 31.2677 25.3312 32.4837 25.1074 33.6639C24.8836 34.8442 24.3898 35.9566 23.6646 36.9143C22.9393 37.8719 22.0024 38.6488 20.927 39.1841C19.8516 39.7194 18.6669 39.9987 17.4656 40C16.1417 40.0007 14.8395 39.6633 13.6825 39.0196C12.5255 38.376 11.552 37.4475 10.8545 36.3222L8.18778 37.4978C7.57496 37.7676 6.89508 37.8466 6.2367 37.7246C5.57832 37.6025 4.97197 37.2849 4.49664 36.8133L1.78106 34.1244C1.29003 33.638 0.962318 33.0111 0.843277 32.3303C0.724237 31.6495 0.819754 30.9485 1.11661 30.3244L13.2589 4.76858ZM12.9167 35.4111C13.6543 36.464 14.7341 37.2285 15.9723 37.5744C17.2104 37.9203 18.5302 37.8261 19.7066 37.3078C20.8831 36.7896 21.8434 35.8794 22.4239 34.7324C23.0044 33.5854 23.1692 32.2726 22.8901 31.0177L12.9167 35.4111ZM18.8901 5.15081C18.6421 4.88825 18.3339 4.69009 17.9921 4.57348C17.6503 4.45686 17.2852 4.42531 16.9284 4.48156C16.5717 4.53781 16.234 4.68016 15.9447 4.89629C15.6553 5.11241 15.423 5.3958 15.2678 5.72193L3.1233 31.2777C3.02495 31.4856 2.9935 31.7188 3.0333 31.9453C3.07311 32.1717 3.18219 32.3803 3.34552 32.5422L6.0611 35.2333C6.21959 35.3899 6.42152 35.4953 6.64067 35.5358C6.85981 35.5762 7.08605 35.5498 7.29 35.46L32.8058 24.2221C33.1314 24.0788 33.4178 23.8594 33.641 23.5824C33.8642 23.3054 34.0176 22.9789 34.0884 22.6302C34.1591 22.2816 34.1452 21.9211 34.0477 21.579C33.9502 21.2369 33.7719 20.9232 33.528 20.6643L18.8901 5.15303V5.15081ZM34.1325 11.1109C33.8378 11.1109 33.5551 11.2279 33.3468 11.4363C33.1384 11.6447 33.0213 11.9273 33.0213 12.222C33.0213 12.5167 33.1384 12.7993 33.3468 13.0077C33.5551 13.216 33.8378 13.3331 34.1325 13.3331H37.4658C37.7605 13.3331 38.0431 13.216 38.2515 13.0077C38.4599 12.7993 38.5769 12.5167 38.5769 12.222C38.5769 11.9273 38.4599 11.6447 38.2515 11.4363C38.0431 11.2279 37.7605 11.1109 37.4658 11.1109H34.1325Z" fill="#96EE1E"/>
</svg>
