<svg width="41" height="40" viewBox="0 0 41 40" fill="none" xmlns="http://www.w3.org/2000/svg">
<path d="M16.462 39.5116C12.8434 38.7316 9.30262 36.7885 6.65153 34.1276C-4.26899 23.1669 0.468736 4.97031 15.3845 0.586523C18.4157 -0.304403 23.5475 -0.164949 26.9185 0.900056C35.1496 3.50025 40.6703 11.1811 40.6877 20.0568C40.7043 29.4197 34.0139 37.5788 24.7146 39.5312C21.7089 40.1623 19.4556 40.157 16.462 39.5105V39.5116ZM19.2714 37.4435C19.2714 36.9076 16.8455 35.1468 16.1109 35.1495C14.7302 35.1536 13.6122 35.5469 13.7493 35.9779C13.987 36.7256 19.2714 38.1281 19.2714 37.4435ZM25.9945 36.9048C27.222 36.5215 28.7217 35.903 29.3271 35.5299C30.3497 34.8997 30.4582 34.6384 30.8538 31.8515C31.0881 30.2015 31.2246 28.7001 31.1578 28.5151C30.955 27.9559 26.5927 24.6079 26.0669 24.6079C25.6732 24.6079 20.113 27.216 19.6836 27.602C19.5621 27.7111 18.2343 32.7012 18.2241 33.087C18.2158 33.3678 23.1818 37.6013 23.5186 37.6013C23.6529 37.6013 24.7671 37.2877 25.9946 36.9048H25.9945ZM12.8781 33.5162C14.1733 33.201 15.4152 32.7662 15.638 32.5505C15.8607 32.3348 16.3832 30.8994 16.799 29.361L17.5548 26.5638L15.839 24.0934C14.1892 21.7179 14.0636 21.6194 12.571 21.5289C11.7174 21.477 10.3077 21.5579 9.43859 21.7113L7.85829 21.988L6.70163 25.3172C6.06545 27.1483 5.63007 28.9868 5.7341 29.4028C5.96305 30.3182 9.46154 34.0896 10.0818 34.0896C10.3244 34.0896 11.583 33.8316 12.8781 33.5162V33.5162ZM35.0438 30.5087C36.4278 28.6267 36.463 27.9626 35.162 28.2764C33.9015 28.5804 33.3183 29.385 33.3183 30.8205C33.3183 32.3614 33.7369 32.2858 35.0438 30.5086L35.0438 30.5087ZM35.3802 25.7836C38.0591 24.891 38.4111 24.2044 38.4059 19.8825C38.4035 17.8249 38.2288 16.0515 37.9871 15.6259C37.698 15.1169 36.704 14.6583 34.7012 14.1095L31.83 13.3226L29.8525 14.8582L27.875 16.3937V19.5183V22.6428L30.3089 24.6869C31.6476 25.8112 32.9118 26.6594 33.1183 26.5717C33.3248 26.4842 34.3426 26.1294 35.3802 25.7836ZM5.03526 22.9357L5.6348 21.0879L4.63948 19.5124C4.09203 18.6459 3.53626 17.9366 3.4044 17.9363C2.64504 17.9342 2.72744 22.4705 3.52512 24.5773C3.9316 25.6505 4.27605 25.2759 5.03532 22.9357H5.03526ZM22.653 23.5531L25.6963 22.1471L25.4748 19.2749C25.3528 17.6951 25.1193 16.2687 24.9559 16.1052C24.4821 15.6314 19.3314 14.3257 18.7765 14.5386C18.4998 14.6448 17.6112 15.7068 16.8019 16.8985C15.578 18.7009 15.3906 19.192 15.6884 19.8174C16.1223 20.7289 19.2125 24.9591 19.4445 24.9591C19.5354 24.9591 20.9792 24.3264 22.653 23.5531ZM12.3319 18.931C12.6679 18.7585 13.76 17.4062 14.7589 15.9259L16.575 13.2346L15.7761 10.8882C15.3368 9.59767 14.8705 8.3688 14.7398 8.1574C14.4391 7.67095 9.53103 6.62142 8.73633 6.87364C7.96888 7.11711 5.32816 10.6475 4.44515 12.6104L3.76024 14.1329L5.06333 16.1221C7.30935 19.5505 7.46584 19.6617 9.73592 19.4392C10.8278 19.3322 11.996 19.1037 12.3319 18.931ZM28.8027 12.8071C30.3638 11.6612 30.5094 11.4369 30.342 10.4367C30.2403 9.82904 30.0056 8.32846 29.82 7.10199C29.6346 5.87551 29.3043 4.6568 29.086 4.39367C28.4779 3.66098 25.0457 2.48961 22.8276 2.25779L20.8418 2.0504L18.8566 4.54202L16.8715 7.03357L17.62 9.3359L18.3686 11.6382L21.3659 12.5286C23.0145 13.0184 24.7584 13.5537 25.2412 13.7183C26.6843 14.2102 27.0026 14.1285 28.8027 12.8073V12.8071ZM36.4787 11.6348C36.4787 11.1423 33.2125 6.94135 32.7036 6.77934C32.2139 6.62339 32.1197 7.99244 32.4917 9.85347C32.6567 10.6794 33.0164 11.119 33.8085 11.4639C35.0834 12.0188 36.4785 12.1082 36.4785 11.6347L36.4787 11.6348ZM16.2685 4.11899C17.7114 2.22714 17.4932 2.10308 14.6314 3.18808C12.0008 4.18539 11.5768 4.49643 12.2479 4.93688C12.5378 5.12726 13.3592 5.28529 14.0736 5.28819C15.1372 5.29234 15.535 5.08081 16.2685 4.11912V4.11899Z" fill="#C4B2F0"/>
</svg>
