<svg width="25" height="18" viewBox="0 0 25 18" fill="none" xmlns="http://www.w3.org/2000/svg">
<g clip-path="url(#clip0_765_2850)">
<path d="M24.3293 8.63595C23.2245 3.90829 21.5619 1.38497 19.0957 0.695716C18.5772 0.551775 18.0395 0.479864 17.4992 0.482234C16.7851 0.482234 16.1632 0.646906 15.5054 0.821438C14.7126 1.03196 13.812 1.27108 12.4989 1.27108C11.1858 1.27108 10.2847 1.03245 9.49042 0.821931C8.83205 0.646906 8.21066 0.482234 7.49864 0.482234C6.93997 0.480401 6.38375 0.552083 5.84594 0.695223C3.39267 1.38152 1.73112 3.90386 0.610222 8.63299C-0.595055 13.722 -0.00179202 16.9351 2.27386 17.6806C2.58579 17.7846 2.914 17.8383 3.24475 17.8393C4.80369 17.8393 6.05376 16.6102 6.90798 15.6039C7.87314 14.465 9.00289 13.8872 12.4989 13.8872C15.6215 13.8872 16.9138 14.288 18.03 15.6039C18.7316 16.4312 19.3946 17.01 20.0561 17.3744C20.9359 17.8585 21.8151 17.966 22.6688 17.6885C24.0137 17.2541 24.7845 16.1058 24.9606 14.2747C25.0944 12.8706 24.8882 11.0262 24.3293 8.63595ZM9.99878 8.3707H8.33202V9.94839C8.33202 10.1576 8.24422 10.3583 8.08793 10.5062C7.93164 10.6541 7.71967 10.7372 7.49864 10.7372C7.27761 10.7372 7.06564 10.6541 6.90935 10.5062C6.75306 10.3583 6.66526 10.1576 6.66526 9.94839V8.3707H4.9985C4.77747 8.3707 4.5655 8.28759 4.40921 8.13965C4.25292 7.99171 4.16511 7.79107 4.16511 7.58185C4.16511 7.37264 4.25292 7.17199 4.40921 7.02405C4.5655 6.87612 4.77747 6.79301 4.9985 6.79301H6.66526V5.21531C6.66526 5.0061 6.75306 4.80545 6.90935 4.65751C7.06564 4.50958 7.27761 4.42647 7.49864 4.42647C7.71967 4.42647 7.93164 4.50958 8.08793 4.65751C8.24422 4.80545 8.33202 5.0061 8.33202 5.21531V6.79301H9.99878C10.2198 6.79301 10.4318 6.87612 10.5881 7.02405C10.7444 7.17199 10.8322 7.37264 10.8322 7.58185C10.8322 7.79107 10.7444 7.99171 10.5881 8.13965C10.4318 8.28759 10.2198 8.3707 9.99878 8.3707ZM14.374 8.56791C14.168 8.56791 13.9666 8.51008 13.7953 8.40173C13.624 8.29338 13.4905 8.13938 13.4116 7.9592C13.3328 7.77902 13.3121 7.58076 13.3523 7.38948C13.3925 7.1982 13.4917 7.02251 13.6374 6.8846C13.7831 6.7467 13.9687 6.65279 14.1708 6.61474C14.3729 6.57669 14.5823 6.59622 14.7727 6.67085C14.963 6.74549 15.1257 6.87187 15.2402 7.03403C15.3547 7.19618 15.4158 7.38683 15.4158 7.58185C15.4158 7.84337 15.306 8.09418 15.1106 8.2791C14.9153 8.46402 14.6503 8.56791 14.374 8.56791ZM16.6658 10.7372C16.4597 10.7372 16.2582 10.6793 16.0868 10.5709C15.9154 10.4624 15.7819 10.3083 15.7032 10.128C15.6244 9.94763 15.6039 9.74924 15.6443 9.5579C15.6847 9.36656 15.7842 9.19086 15.9301 9.05306C16.0761 8.91526 16.262 8.82154 16.4642 8.78377C16.6665 8.746 16.876 8.76588 17.0663 8.84089C17.2566 8.9159 17.4191 9.04267 17.5333 9.20515C17.6474 9.36763 17.7081 9.55852 17.7076 9.75364C17.7069 10.0147 17.5968 10.2649 17.4015 10.4493C17.2062 10.6337 16.9417 10.7372 16.6658 10.7372ZM16.6658 6.39858C16.4598 6.39858 16.2584 6.34075 16.0871 6.2324C15.9158 6.12405 15.7822 5.97005 15.7034 5.78987C15.6246 5.60969 15.6039 5.41143 15.6441 5.22015C15.6843 5.02888 15.7835 4.85318 15.9292 4.71528C16.0749 4.57737 16.2605 4.48346 16.4626 4.44541C16.6647 4.40737 16.8741 4.42689 17.0645 4.50153C17.2548 4.57616 17.4175 4.70254 17.532 4.8647C17.6465 5.02686 17.7076 5.2175 17.7076 5.41252C17.7076 5.67404 17.5978 5.92485 17.4024 6.10977C17.2071 6.29469 16.9421 6.39858 16.6658 6.39858ZM18.9576 8.56791C18.7516 8.56791 18.5502 8.51008 18.3789 8.40173C18.2076 8.29338 18.074 8.13938 17.9952 7.9592C17.9164 7.77902 17.8957 7.58076 17.9359 7.38948C17.9761 7.1982 18.0753 7.02251 18.221 6.8846C18.3667 6.7467 18.5523 6.65279 18.7544 6.61474C18.9565 6.57669 19.1659 6.59622 19.3563 6.67085C19.5466 6.74549 19.7093 6.87187 19.8238 7.03403C19.9383 7.19618 19.9994 7.38683 19.9994 7.58185C19.9994 7.84337 19.8896 8.09418 19.6942 8.2791C19.4989 8.46402 19.2339 8.56791 18.9576 8.56791Z" fill="#060606"/>
</g>
<defs>
<clipPath id="clip0_765_2850">
<rect width="25" height="18" fill="white"/>
</clipPath>
</defs>
</svg>
