<svg width="197" height="40" viewBox="0 0 197 40" fill="none" xmlns="http://www.w3.org/2000/svg">
<path d="M59.0783 2.04058e-07H19.6918C16.4455 -0.000470802 13.2494 0.814444 10.3881 2.37219C7.52685 3.92994 5.08916 6.18219 3.29206 8.92842C1.49497 11.6747 0.394244 14.8297 0.0878789 18.1125C-0.218486 21.3954 0.279017 24.7043 1.5361 27.7446C2.79318 30.785 4.77082 33.4624 7.29297 35.5385C9.81512 37.6147 12.8035 39.0251 15.9921 39.6443C19.1807 40.2635 22.4705 40.0721 25.5687 39.0874C28.6669 38.1026 31.4773 36.355 33.7497 34H45.0118C47.2839 36.3547 50.094 38.1022 53.1918 39.0871C56.2895 40.0719 59.579 40.2634 62.7673 39.6447C65.9555 39.0259 68.9438 37.6161 71.466 35.5406C73.9882 33.4651 75.9661 30.7884 77.2237 27.7487C78.4813 24.709 78.9795 21.4006 78.6741 18.118C78.3686 14.8354 77.269 11.6804 75.473 8.93389C73.677 6.18737 71.2403 3.9345 68.38 2.37581C65.5196 0.817124 62.3243 0.000971897 59.0783 2.04058e-07ZM30.5207 21.5C30.5207 21.8978 30.3651 22.2794 30.0882 22.5607C29.8113 22.842 29.4357 23 29.044 23H22.6451V29.5C22.6451 29.8978 22.4895 30.2794 22.2126 30.5607C21.9357 30.842 21.5601 31 21.1684 31H18.2151C17.8235 31 17.4479 30.842 17.1709 30.5607C16.894 30.2794 16.7384 29.8978 16.7384 29.5V23H10.3395C9.94788 23 9.57229 22.842 9.29536 22.5607C9.01843 22.2794 8.86285 21.8978 8.86285 21.5V18.5C8.86285 18.1022 9.01843 17.7206 9.29536 17.4393C9.57229 17.158 9.94788 17 10.3395 17H16.7384V10.5C16.7384 10.1022 16.894 9.72064 17.1709 9.43934C17.4479 9.15804 17.8235 9 18.2151 9H21.1684C21.5601 9 21.9357 9.15804 22.2126 9.43934C22.4895 9.72064 22.6451 10.1022 22.6451 10.5V17H29.044C29.4357 17 29.8113 17.158 30.0882 17.4393C30.3651 17.7206 30.5207 18.1022 30.5207 18.5V21.5ZM57.1008 31C56.1273 31 55.1756 30.7068 54.3661 30.1573C53.5567 29.6079 52.9258 28.827 52.5532 27.9134C52.1807 26.9998 52.0832 25.9945 52.2731 25.0245C52.4631 24.0546 52.9319 23.1637 53.6202 22.4645C54.3086 21.7652 55.1857 21.289 56.1405 21.0961C57.0953 20.9031 58.085 21.0022 58.9845 21.3806C59.8839 21.759 60.6526 22.3999 61.1935 23.2221C61.7344 24.0444 62.023 25.0111 62.023 26C62.023 27.3261 61.5044 28.5979 60.5813 29.5355C59.6582 30.4732 58.4063 31 57.1008 31ZM64.9764 19C64.0029 19 63.0512 18.7068 62.2417 18.1573C61.4323 17.6079 60.8014 16.827 60.4288 15.9134C60.0563 14.9998 59.9588 13.9945 60.1487 13.0245C60.3386 12.0546 60.8074 11.1637 61.4958 10.4645C62.1842 9.7652 63.0613 9.289 64.0161 9.09607C64.9709 8.90315 65.9606 9.00216 66.86 9.3806C67.7595 9.75904 68.5282 10.3999 69.0691 11.2221C69.6099 12.0444 69.8986 13.0111 69.8986 14C69.8986 15.3261 69.38 16.5979 68.4569 17.5355C67.5338 18.4732 66.2818 19 64.9764 19Z" fill="white"/>
<path d="M138.761 4.28571V35.7143C138.761 38.0812 136.843 40 134.476 40H103.047C100.68 40 98.7615 38.0812 98.7615 35.7143V4.28571C98.7615 1.91875 100.68 0 103.047 0H134.476C136.843 0 138.761 1.91875 138.761 4.28571ZM125.904 23.5714C124.604 23.5714 123.42 24.0679 122.531 24.8813L116.463 21.2407C116.67 20.4265 116.67 19.5734 116.463 18.7592L122.531 15.1186C123.42 15.9321 124.604 16.4286 125.904 16.4286C128.666 16.4286 130.904 14.19 130.904 11.4286C130.904 8.66714 128.666 6.42857 125.904 6.42857C123.143 6.42857 120.904 8.66714 120.904 11.4286C120.904 11.8569 120.958 12.2726 121.06 12.6694L114.992 16.31C114.103 15.4965 112.919 15 111.619 15C108.857 15 106.619 17.2386 106.619 20C106.619 22.7614 108.857 25 111.619 25C112.919 25 114.103 24.5035 114.992 23.6901L121.06 27.3307C120.956 27.7362 120.904 28.1531 120.904 28.5715C120.904 31.3329 123.143 33.5715 125.904 33.5715C128.666 33.5715 130.904 31.3329 130.904 28.5715C130.904 25.81 128.666 23.5714 125.904 23.5714Z" fill="white"/>
<path d="M158.761 11.25V2.5H167.511M193.761 11.25V2.5H185.011M167.511 37.5H158.761V28.75M185.011 37.5H193.761V28.75" stroke="#F1F1F1" stroke-width="5" stroke-linecap="round" stroke-linejoin="round"/>
</svg>
